# Blender 4.5.2 LTS
# www.blender.org
mtllib antorcha.mtl
o torchstick
v 0.033939 1.042342 0.061995
v 0.035883 0.988370 0.045321
v 0.043671 0.921418 0.036255
v 0.049911 0.851143 0.024326
v 0.052493 0.737409 0.018936
v 0.052796 0.600045 0.018713
v 0.051020 0.466354 0.025386
v 0.052104 0.341524 0.018674
v 0.045920 0.201673 0.021028
v 0.035801 0.117136 0.016949
v 0.025165 0.016178 0.014659
v 0.024009 -0.066856 0.012171
v 0.030282 -0.066516 0.001871
v 0.028852 -0.066554 -0.009085
v 0.020851 -0.066908 -0.018861
v 0.012968 -0.067257 -0.028760
v 0.001086 -0.067821 -0.029838
v -0.011343 -0.068419 -0.027889
v -0.023349 -0.069001 -0.024923
v -0.031761 -0.069426 -0.016383
v -0.035558 -0.069641 -0.004353
v -0.035939 -0.069694 0.008092
v -0.029496 -0.069414 0.017946
v -0.019371 -0.068950 0.025024
v -0.008138 -0.068428 0.030136
v 0.003908 -0.067845 0.027158
v 0.014241 -0.067332 0.020022
v 0.030612 0.016385 0.003642
v 0.028637 0.016681 -0.008481
v 0.022814 0.017094 -0.019098
v 0.013149 0.017594 -0.026702
v 0.001133 0.018075 -0.028467
v -0.010983 0.018561 -0.030306
v -0.019877 0.018760 -0.023065
v -0.026379 0.018812 -0.012650
v -0.030695 0.018780 -0.002165
v -0.028169 0.018463 0.009990
v -0.022714 0.018056 0.021042
v -0.013457 0.017566 0.028929
v -0.003131 0.017099 0.033350
v 0.007902 0.016743 0.030283
v 0.018287 0.016469 0.024134
v 0.028233 0.117886 0.026069
v 0.020248 0.118698 0.035252
v 0.009600 0.120048 0.039970
v -0.001917 0.121803 0.036791
v -0.010416 0.123311 0.028501
v -0.017311 0.124643 0.018728
v -0.021102 0.125592 0.007249
v -0.018825 0.125696 -0.004771
v -0.014043 0.125414 -0.015978
v -0.003251 0.124051 -0.020927
v 0.008454 0.122490 -0.023954
v 0.019547 0.120870 -0.022870
v 0.028310 0.119323 -0.014545
v 0.036078 0.117889 -0.005395
v 0.039715 0.116967 0.005930
v 0.046723 0.202886 0.010192
v 0.043677 0.204304 -0.001863
v 0.037107 0.206444 -0.012343
v 0.026538 0.209271 -0.018833
v 0.014716 0.212212 -0.022357
v 0.002327 0.215091 -0.022619
v -0.007937 0.217091 -0.016338
v -0.009754 0.216794 -0.004235
v -0.012093 0.216595 0.008238
v -0.013836 0.216266 0.020592
v -0.009291 0.214527 0.032206
v 0.000652 0.211867 0.038319
v 0.012879 0.209027 0.038562
v 0.024462 0.206630 0.033824
v 0.036502 0.204016 0.030976
v 0.044939 0.342471 0.028900
v 0.039373 0.342902 0.039791
v 0.027565 0.344863 0.042744
v 0.015779 0.347083 0.040638
v 0.004736 0.349278 0.036447
v -0.003105 0.351146 0.027537
v -0.007455 0.352510 0.016279
v -0.008571 0.353353 0.003898
v -0.003999 0.353088 -0.006751
v 0.006761 0.351459 -0.012490
v 0.016657 0.350062 -0.019707
v 0.028031 0.347939 -0.018050
v 0.038549 0.345732 -0.011813
v 0.047381 0.343718 -0.003491
v 0.053701 0.342043 0.006950
v 0.053595 0.466354 0.013835
v 0.046570 0.469263 0.004223
v 0.039523 0.472178 -0.005392
v 0.031054 0.475438 -0.013795
v 0.020029 0.479139 -0.017753
v 0.008323 0.482607 -0.016017
v -0.000140 0.484583 -0.007927
v -0.008967 0.486737 -0.000683
v -0.009158 0.485881 0.011103
v -0.005097 0.483763 0.022287
v -0.000713 0.481535 0.033596
v 0.009253 0.478014 0.039430
v 0.020880 0.474238 0.041976
v 0.031716 0.471118 0.039197
v 0.042505 0.468220 0.033751
v 0.050019 0.602026 0.006565
v 0.046571 0.603679 -0.005041
v 0.041386 0.605463 -0.015991
v 0.030199 0.607126 -0.019370
v 0.018236 0.608320 -0.017569
v 0.006964 0.609107 -0.012748
v -0.002284 0.609335 -0.004918
v -0.006538 0.608673 0.005781
v -0.004478 0.607129 0.017876
v -0.000296 0.605398 0.029416
v 0.007148 0.603483 0.039154
v 0.018499 0.601747 0.043027
v 0.030401 0.600518 0.041623
v 0.042354 0.599405 0.039088
v 0.050249 0.599482 0.029881
v 0.047615 0.737871 0.030253
v 0.040622 0.738942 0.040451
v 0.028643 0.742186 0.040723
v 0.019357 0.745369 0.032787
v 0.008687 0.748733 0.027247
v -0.001114 0.751741 0.023154
v -0.010520 0.754945 0.015353
v -0.012113 0.756390 0.003025
v -0.003449 0.754716 -0.005380
v 0.006353 0.752651 -0.012801
v 0.016435 0.750476 -0.019819
v 0.028580 0.747062 -0.018570
v 0.039250 0.743688 -0.012897
v 0.046292 0.740956 -0.002996
v 0.054086 0.738072 0.006265
v 0.047476 0.848138 0.036957
v 0.044292 0.845081 0.049790
v 0.032760 0.844361 0.053553
v 0.018924 0.844334 0.054618
v 0.005192 0.844353 0.055483
v -0.007230 0.845889 0.050000
v -0.010908 0.849080 0.037089
v -0.014989 0.852165 0.024638
v -0.012153 0.854977 0.012842
v -0.004249 0.857552 0.001676
v 0.005369 0.859760 -0.008094
v 0.018012 0.860761 -0.013094
v 0.031337 0.859944 -0.010640
v 0.037448 0.857185 0.000324
v 0.043398 0.854133 0.012504
v 0.039576 0.917550 0.048668
v 0.033870 0.914140 0.060531
v 0.022413 0.912678 0.067568
v 0.008641 0.913399 0.068302
v -0.003636 0.915972 0.062940
v -0.015612 0.918892 0.056434
v -0.023127 0.922909 0.045540
v -0.025782 0.927225 0.032665
v -0.023282 0.931205 0.019721
v -0.012305 0.932733 0.012584
v -0.000672 0.933968 0.006213
v 0.009623 0.935653 -0.001266
v 0.021741 0.932887 0.004730
v 0.031764 0.929329 0.013649
v 0.041299 0.925636 0.023094
v 0.036127 0.985856 0.058251
v 0.028270 0.985077 0.069634
v 0.015611 0.986136 0.075858
v 0.003216 0.987047 0.082608
v -0.010041 0.989839 0.080316
v -0.019833 0.993254 0.071542
v -0.028654 0.996640 0.062015
v -0.032978 0.999886 0.049041
v -0.028587 1.001636 0.035802
v -0.022639 1.002988 0.023193
v -0.012897 1.002930 0.014442
v 0.000835 1.000896 0.012322
v 0.013853 0.997778 0.016544
v 0.026183 0.994480 0.022352
v 0.035496 0.991024 0.031785
v 0.033769 1.043914 0.046818
v 0.027315 1.046714 0.034210
v 0.016140 1.050570 0.023759
v 0.002068 1.054678 0.019178
v -0.013213 1.058781 0.018306
v -0.026236 1.061619 0.025129
v -0.037818 1.063768 0.035493
v -0.046681 1.065030 0.047821
v -0.045536 1.063446 0.062530
v -0.037335 1.060150 0.075544
v -0.025476 1.056214 0.084839
v -0.012440 1.052167 0.091861
v 0.002132 1.048206 0.093246
v 0.016286 1.044970 0.087571
v 0.026858 1.043203 0.075869
v 0.035070 1.093921 0.065983
v 0.034825 1.093959 0.051483
v 0.031350 1.093344 0.037824
v 0.019980 1.091036 0.025840
v 0.005757 1.091710 0.019167
v -0.010465 1.092296 0.023103
v -0.028087 1.092078 0.028082
v -0.042478 1.091280 0.035491
v -0.051740 1.088112 0.049125
v -0.047754 1.082824 0.065073
v -0.035754 1.081178 0.074531
v -0.025782 1.082474 0.088817
v -0.013864 1.083363 0.098320
v 0.001014 1.089459 0.097064
v 0.016729 1.090989 0.094160
v 0.027651 1.090526 0.085432
v 0.002499 1.103769 0.116549
v 0.022944 1.105512 0.104664
v -0.022177 1.102896 0.111672
v -0.037049 1.100323 0.101189
v -0.047035 1.096799 0.086461
v -0.054673 1.100961 0.069005
v -0.054505 1.102281 0.048017
v -0.048779 1.101857 0.032779
v -0.033534 1.102469 0.017823
v -0.014645 1.102684 0.012872
v 0.007380 1.102807 0.014813
v 0.026802 1.102719 0.020587
v 0.037448 1.103119 0.035339
v 0.039719 1.104636 0.051205
v 0.039588 1.104434 0.067911
v 0.033400 1.104959 0.088698
v 0.002606 1.118212 0.128750
v 0.028245 1.121031 0.118149
v 0.040183 1.119564 0.095068
v 0.050076 1.120304 0.068237
v 0.047429 1.120026 0.049727
v 0.040853 1.118973 0.033550
v 0.030129 1.117724 0.017836
v 0.009148 1.116182 0.007430
v -0.015311 1.116152 0.007821
v -0.035072 1.114351 0.014906
v -0.055199 1.113074 0.028021
v -0.058509 1.112379 0.046816
v -0.059835 1.110524 0.070760
v -0.052182 1.111162 0.094666
v -0.041463 1.111456 0.106643
v -0.028726 1.113591 0.120283
v -0.070483 1.138056 0.070370
v -0.060214 1.134539 0.093523
v -0.072263 1.136786 0.045136
v -0.063483 1.136303 0.025907
v -0.048585 1.135699 0.004443
v -0.028544 1.137752 -0.006606
v 0.007265 1.137021 -0.000780
v 0.032305 1.140114 0.014271
v 0.056129 1.139379 0.045624
v 0.049812 1.139757 0.028331
v 0.056667 1.139846 0.070993
v 0.050272 1.142135 0.101095
v 0.032949 1.140255 0.117839
v 0.003594 1.142165 0.132925
v -0.027999 1.138559 0.128246
v -0.046845 1.135088 0.115341
v -0.067376 1.160217 0.098081
v -0.049842 1.161733 0.118878
v -0.032681 1.162533 0.131302
v 0.000952 1.166221 0.136053
v 0.035813 1.166131 0.117289
v 0.047848 1.167601 0.101822
v 0.054085 1.165114 0.071421
v 0.054774 1.163516 0.047874
v 0.049622 1.161847 0.029593
v 0.037279 1.161577 0.011343
v 0.006151 1.160638 -0.005876
v -0.028142 1.157038 -0.008219
v -0.049718 1.156081 0.004827
v -0.066998 1.156307 0.023727
v -0.078093 1.156801 0.048148
v -0.077945 1.157689 0.071098
v -0.016294 -0.106798 0.021869
v -0.007134 -0.105106 0.023869
v 0.004025 -0.103748 0.023243
v 0.016227 -0.104288 0.018579
v 0.022206 -0.102078 0.009251
v 0.027458 -0.101715 0.000384
v 0.026208 -0.102442 -0.009601
v 0.019960 -0.101549 -0.020059
v 0.010942 -0.100500 -0.023709
v 0.001187 -0.100209 -0.027186
v -0.009696 -0.099294 -0.025700
v -0.018904 -0.101521 -0.022073
v -0.026882 -0.102006 -0.013748
v -0.025895 -0.102301 -0.004167
v -0.024633 -0.103674 0.005707
v -0.022911 -0.106303 0.015660
v -0.002352 -0.110759 -0.015720
v 0.006631 -0.112497 -0.011112
v -0.003658 -0.113181 0.013984
v -0.012046 -0.111705 0.009179
v 0.000449 -0.112958 0.001685
v -0.005572 -0.112500 -0.003133
v 0.017915 -0.114457 -0.001610
v 0.015419 -0.114637 0.006857
v 0.008595 -0.112901 0.013645
v 0.018771 -0.111064 -0.011774
v -0.010539 -0.109102 -0.020232
v -0.016929 -0.110272 -0.008947
v -0.016748 -0.108372 0.002923
v -0.002637 0.718598 0.026464
v 0.004609 0.716268 0.036840
v 0.018039 0.712928 0.037726
v 0.029595 0.709972 0.037358
v 0.036506 0.707232 0.032105
v 0.043264 0.706419 0.027673
v 0.051297 0.706237 0.018675
v 0.056086 0.707157 0.005576
v 0.048937 0.709814 -0.005048
v 0.039503 0.712311 -0.013336
v 0.029021 0.715306 -0.019088
v 0.016759 0.718211 -0.019625
v 0.006760 0.720077 -0.012398
v -0.001261 0.721762 -0.003386
v -0.005483 0.723049 0.005044
v -0.005037 0.721481 0.014134
v 0.006046 0.795977 0.043883
v -0.004441 0.798871 0.036894
v -0.010533 0.802178 0.026185
v -0.011667 0.804440 0.014151
v -0.008988 0.805067 0.002883
v 0.000948 0.805266 -0.005634
v 0.011700 0.805191 -0.012131
v 0.023284 0.804087 -0.015866
v 0.033553 0.801800 -0.009636
v 0.043172 0.799376 -0.002134
v 0.050634 0.796443 0.008671
v 0.054730 0.794560 0.021819
v 0.047599 0.793171 0.033634
v 0.038970 0.792679 0.040621
v 0.030665 0.793351 0.047726
v 0.017737 0.793922 0.048767
v -0.006323 0.544860 0.014276
v -0.003113 0.542949 0.025918
v 0.003994 0.540856 0.035340
v 0.013713 0.538213 0.041335
v 0.025426 0.535689 0.040818
v 0.035468 0.533614 0.036138
v 0.043390 0.532159 0.029431
v 0.049814 0.531395 0.021707
v 0.057171 0.532356 0.009111
v 0.050403 0.534529 -0.002406
v 0.041278 0.536964 -0.011409
v 0.030101 0.539574 -0.014844
v 0.018991 0.541980 -0.019481
v 0.006256 0.544181 -0.016980
v -0.001477 0.545285 -0.006730
v -0.005563 0.546003 0.003094
v 0.005688 0.396635 0.032107
v 0.000068 0.398617 0.023714
v -0.004905 0.400246 0.013778
v -0.004323 0.401104 0.003525
v -0.000930 0.400150 -0.005476
v 0.006066 0.398390 -0.015964
v 0.018036 0.396233 -0.017182
v 0.029477 0.393583 -0.017301
v 0.039780 0.391021 -0.010476
v 0.046755 0.388629 -0.000474
v 0.049248 0.386472 0.010242
v 0.049265 0.386251 0.019972
v 0.045872 0.387465 0.032154
v 0.036102 0.388764 0.038692
v 0.025163 0.391157 0.042118
v 0.013508 0.393938 0.040010
v -0.007554 0.290673 0.000421
v -0.006196 0.290048 0.012451
v -0.005386 0.289132 0.023409
v -0.001011 0.287432 0.033732
v 0.008934 0.285064 0.039244
v 0.020867 0.282546 0.041207
v 0.033904 0.280204 0.039648
v 0.045544 0.278652 0.033857
v 0.051960 0.277278 0.020864
v 0.056979 0.277918 0.007910
v 0.048752 0.279669 -0.004629
v 0.038977 0.281832 -0.013327
v 0.026734 0.284333 -0.016880
v 0.015857 0.286772 -0.018815
v 0.004973 0.288874 -0.016567
v -0.004942 0.290645 -0.010462
v -0.023246 0.080214 -0.008607
v -0.026465 0.080132 0.003228
v -0.020935 0.079271 0.014564
v -0.012261 0.078233 0.022520
v -0.005062 0.077338 0.030444
v 0.004158 0.076280 0.034732
v 0.014338 0.075323 0.032016
v 0.024799 0.074507 0.026000
v 0.032640 0.073889 0.016760
v 0.036473 0.073993 0.005012
v 0.032669 0.074721 -0.006605
v 0.026556 0.075691 -0.017020
v 0.018355 0.076855 -0.027952
v 0.005464 0.078148 -0.029934
v -0.005533 0.078741 -0.021627
v -0.013597 0.079517 -0.016246
v -0.046759 1.076579 0.064116
v -0.036395 1.074358 0.074977
v -0.027630 1.073691 0.089697
v -0.013383 1.073264 0.096162
v 0.001602 1.075877 0.097445
v 0.015228 1.076399 0.089469
v 0.024729 1.075526 0.080512
v 0.031862 1.077357 0.064151
v 0.031159 1.077833 0.050521
v 0.025351 1.078342 0.039613
v 0.018723 1.077922 0.025185
v 0.004699 1.079742 0.018182
v -0.011598 1.081540 0.020504
v -0.028680 1.082341 0.024732
v -0.040160 1.082459 0.036334
v -0.047153 1.081160 0.049433
v -0.014822 1.012269 0.081192
v -0.026642 1.015429 0.073691
v -0.034145 1.019105 0.062116
v -0.039292 1.021390 0.048385
v -0.034477 1.022088 0.034036
v -0.029221 1.022445 0.018488
v -0.013053 1.021684 0.015593
v 0.001411 1.019063 0.013552
v 0.015094 1.015623 0.018045
v 0.026508 1.011999 0.026386
v 0.035892 1.008877 0.036533
v 0.035522 1.006521 0.050913
v 0.034784 1.005114 0.064954
v 0.025792 1.004879 0.077663
v 0.011691 1.006630 0.083575
v -0.001997 1.009009 0.085101
v -0.008212 0.949220 0.073913
v -0.017410 0.953173 0.063251
v -0.025935 0.956814 0.053244
v -0.028691 0.960717 0.040214
v -0.024545 0.963626 0.027751
v -0.015261 0.965004 0.019473
v -0.007787 0.965890 0.007295
v 0.005620 0.966055 0.002942
v 0.019232 0.963229 0.008289
v 0.031346 0.959883 0.015263
v 0.037577 0.955577 0.027570
v 0.040032 0.952237 0.040416
v 0.038403 0.949013 0.053239
v 0.032549 0.946734 0.066001
v 0.020593 0.946168 0.074627
v 0.005977 0.946501 0.079243
v -0.001277 1.213171 0.131278
v -0.000995 1.257481 0.131312
v -0.002278 1.326275 0.121739
v 0.034991 1.213862 0.113863
v 0.034749 1.254722 0.115522
v 0.026458 1.326448 0.110741
v 0.051356 1.212798 0.096685
v 0.057151 1.251607 0.093591
v 0.043955 1.328854 0.092929
v 0.053904 1.211011 0.069158
v 0.057421 1.250341 0.067601
v 0.049599 1.329237 0.066256
v 0.055951 1.211404 0.042112
v 0.053436 1.249678 0.041708
v 0.045409 1.331603 0.047613
v 0.047421 1.212273 0.023449
v 0.047784 1.251225 0.020501
v 0.037518 1.331603 0.031339
v 0.037166 1.211945 0.008450
v 0.036441 1.251473 0.006452
v 0.024437 1.328715 0.018294
v 0.005942 1.211310 -0.011950
v 0.006056 1.251878 -0.008392
v 0.003138 1.332831 0.008355
v -0.028544 1.209661 -0.010473
v -0.025764 1.251311 -0.008385
v -0.022562 1.327341 0.000983
v -0.051086 1.208864 0.006843
v -0.042730 1.326521 0.012480
v -0.063037 1.207923 0.022972
v -0.057425 1.329717 0.024055
v -0.076141 1.206974 0.045518
v -0.064018 1.331810 0.045598
v -0.053178 1.248497 0.003097
v -0.066251 1.246602 0.021736
v -0.073260 1.245826 0.046682
v -0.072567 1.208239 0.071040
v -0.072750 1.245971 0.070415
v -0.068028 1.333611 0.069607
v -0.065369 1.209829 0.096520
v -0.065858 1.246058 0.095010
v -0.063949 1.331071 0.093186
v -0.054576 1.210324 0.115160
v -0.054848 1.246187 0.114106
v -0.050638 1.334905 0.110266
v -0.035903 1.211704 0.131444
v -0.034629 1.250615 0.126016
v -0.031695 1.331185 0.115987
v 0.033613 1.233370 0.112846
v 0.048067 1.231807 0.092494
v 0.056133 1.229694 0.068424
v 0.056985 1.229618 0.041493
v 0.047809 1.230808 0.021931
v 0.035291 1.230773 0.009221
v 0.005418 1.230507 -0.007971
v -0.026479 1.229404 -0.006857
v -0.051815 1.227748 0.005356
v -0.063342 1.226400 0.023080
v -0.074866 1.225466 0.046057
v -0.073026 1.226203 0.070809
v -0.068373 1.227083 0.096970
v -0.053433 1.227317 0.113524
v -0.035067 1.230174 0.128251
v -0.001226 1.234248 0.130826
v 0.034010 1.281856 0.117979
v 0.052926 1.280344 0.094299
v 0.060135 1.280075 0.067667
v 0.056134 1.281516 0.042937
v 0.045435 1.282477 0.023813
v 0.035068 1.282228 0.006261
v 0.005520 1.283181 -0.003833
v -0.025289 1.281382 -0.009806
v -0.052486 1.279141 0.002219
v -0.067577 1.278177 0.019770
v -0.076466 1.278551 0.044896
v -0.078819 1.278507 0.070827
v -0.072566 1.277863 0.097891
v -0.056257 1.278742 0.116206
v -0.036760 1.281467 0.131429
v -0.000955 1.282705 0.132015
v 0.040221 1.192204 0.121679
v 0.047837 1.191777 0.098199
v 0.053071 1.189695 0.070116
v 0.058398 1.189090 0.044335
v 0.048720 1.188829 0.026162
v 0.036218 1.188617 0.010847
v 0.005053 1.188046 -0.005713
v -0.027738 1.185308 -0.007379
v -0.052685 1.184360 0.003465
v -0.067570 1.184038 0.021542
v -0.074680 1.183518 0.047225
v -0.074605 1.184712 0.070975
v -0.065826 1.186750 0.097005
v -0.053630 1.187731 0.118071
v -0.034054 1.188843 0.130476
v -0.000104 1.191401 0.134174
v 0.005332 1.339139 0.064008
v -0.017598 1.339411 0.072496
v -0.036737 1.336819 0.079847
v 0.024355 1.337996 0.056876
v 0.012851 1.334477 0.025345
v -0.005311 1.336766 0.039596
v -0.027506 1.337824 0.051693
v -0.042692 1.337226 0.060600
v -0.073240 1.309797 0.044547
v -0.072066 1.309517 0.070164
v -0.069784 1.308589 0.096359
v -0.053541 1.309800 0.113420
v -0.034680 1.310948 0.125372
v -0.001337 1.308726 0.128812
v 0.033135 1.309363 0.119081
v 0.049727 1.308957 0.094566
v 0.056042 1.309307 0.067416
v 0.053054 1.312293 0.045200
v 0.045576 1.312878 0.025146
v 0.031009 1.312118 0.010310
v 0.006688 1.313699 -0.006212
v -0.024500 1.310861 -0.006927
v -0.049182 1.308943 0.005199
v -0.065319 1.308655 0.020081
vn 0.9458 0.1102 -0.3056
vn 0.9985 0.0522 -0.0165
vn 0.9941 0.1078 -0.0106
vn 0.9596 0.0146 0.2810
vn 0.9559 0.0221 0.2929
vn 0.9959 0.0602 0.0681
vn 0.8954 0.1209 -0.4285
vn 0.8997 0.1443 -0.4121
vn 0.9846 0.1155 -0.1308
vn 0.9283 0.0051 0.3719
vn 0.9676 0.0568 0.2462
vn 0.8981 0.0894 -0.4306
vn 0.9923 0.0263 0.1210
vn 0.7771 -0.0568 0.6268
vn 0.8628 -0.0278 0.5047
vn 0.9688 0.0220 -0.2470
vn 0.9914 -0.0083 -0.1308
vn 0.6726 -0.0248 0.7396
vn 0.9988 0.0361 0.0334
vn 0.8285 -0.0156 0.5597
vn 0.9841 -0.0139 -0.1769
vn 0.9993 -0.0199 -0.0313
vn 0.5882 0.0344 0.8080
vn 0.7025 -0.0282 0.7111
vn 0.9878 -0.0143 0.1548
vn 0.9925 0.0064 -0.1221
vn 0.8776 0.0145 0.4791
vn 0.8149 -0.0054 0.5795
vn 0.9128 -0.0548 0.4048
vn 0.9918 -0.0953 -0.0855
vn 0.9935 -0.0421 -0.1057
vn 0.5058 -0.0603 0.8605
vn 0.6976 -0.0413 0.7153
vn 0.9069 -0.0895 0.4117
vn 0.9962 -0.0869 0.0043
vn 0.7428 -0.1062 0.6610
vn 0.8641 -0.0983 0.4937
vn 0.8661 -0.0912 0.4915
vn 0.9889 -0.0552 0.1379
vn 0.9962 -0.0865 -0.0019
vn 0.6371 -0.0767 0.7670
vn 0.8465 -0.0803 0.5263
vn 0.9778 -0.0488 0.2037
vn 0.9103 -0.0622 -0.4092
vn 0.9441 -0.0245 -0.3289
vn 0.9207 -0.0351 -0.3887
vn 0.8216 -0.0397 -0.5687
vn 0.7574 -0.0162 -0.6528
vn 0.7659 -0.0395 -0.6418
vn 0.4037 -0.0120 -0.9148
vn 0.5065 0.0010 -0.8622
vn 0.4732 -0.0702 -0.8782
vn -0.2368 0.0672 -0.9692
vn 0.1221 0.0313 -0.9920
vn -0.0109 -0.0580 -0.9983
vn -0.5419 0.0914 -0.8354
vn -0.2714 0.0776 -0.9593
vn -0.2050 -0.0395 -0.9780
vn -0.7376 0.0864 -0.6697
vn -0.5862 0.0682 -0.8073
vn -0.5095 -0.0386 -0.8596
vn -0.8802 0.0806 -0.4677
vn -0.8406 0.0789 -0.5359
vn -0.8553 -0.0471 -0.5159
vn -0.9915 0.0918 0.0917
vn -0.9504 0.1113 -0.2905
vn -0.9845 -0.0881 -0.1517
vn -0.9927 0.0690 -0.0985
vn -0.9401 0.0655 0.3344
vn -0.8075 0.0561 0.5872
vn -0.9541 -0.1225 0.2733
vn -0.7799 0.0588 0.6231
vn -0.7105 0.0273 0.7032
vn -0.7343 -0.0925 0.6725
vn -0.5310 0.0317 0.8468
vn -0.5916 -0.0104 0.8062
vn -0.4936 -0.0745 0.8665
vn -0.0754 -0.0210 0.9969
vn -0.0806 -0.0632 0.9947
vn -0.1032 -0.0890 0.9907
vn 0.3886 -0.0629 0.9193
vn 0.3879 -0.0772 0.9185
vn 0.4092 -0.0758 0.9093
vn 0.6663 -0.0829 0.7410
vn 0.6027 -0.0601 0.7957
vn 0.7513 -0.0619 0.6571
vn 0.5688 -0.1044 0.8158
vn 0.3043 -0.0458 0.9515
vn 0.0739 -0.0574 0.9956
vn 0.1579 -0.0416 0.9866
vn -0.4943 -0.0264 0.8689
vn -0.2979 -0.0078 0.9546
vn -0.7594 -0.0256 0.6502
vn -0.7622 0.0381 0.6462
vn -0.8897 0.0065 0.4565
vn -0.9876 0.0882 0.1297
vn -0.9942 0.0805 0.0709
vn -0.9851 0.0891 -0.1473
vn -0.9830 0.0645 -0.1718
vn -0.7097 0.0561 -0.7022
vn -0.8229 0.0669 -0.5642
vn -0.2525 0.0390 -0.9668
vn -0.3327 0.0181 -0.9428
vn 0.1512 0.0127 -0.9884
vn -0.0847 0.0611 -0.9945
vn 0.4004 -0.0008 -0.9163
vn 0.4176 0.0475 -0.9074
vn 0.6992 -0.0445 -0.7135
vn 0.7334 -0.0082 -0.6798
vn 0.9070 -0.0899 -0.4115
vn 0.8752 -0.0438 -0.4819
vn 0.7620 -0.0111 -0.6475
vn 0.4933 0.0126 -0.8698
vn 0.2413 0.0178 -0.9703
vn -0.0036 0.0247 -0.9997
vn -0.3711 0.0599 -0.9266
vn -0.8052 0.0624 -0.5897
vn -0.9968 0.0288 -0.0744
vn -0.9711 0.0228 0.2376
vn -0.9939 0.0358 0.1044
vn -0.9672 0.0659 0.2455
vn -0.7332 0.0592 0.6775
vn -0.3264 0.0175 0.9451
vn -0.0172 -0.0170 0.9997
vn 0.3064 -0.0341 0.9513
vn 0.4303 0.0269 0.9023
vn 0.3611 0.0286 0.9321
vn 0.0631 0.0091 0.9980
vn 0.0195 0.0168 0.9997
vn -0.4488 0.0131 0.8936
vn -0.3694 -0.0073 0.9292
vn -0.7651 0.0192 0.6436
vn -0.8557 0.0309 0.5165
vn -0.8678 0.0115 0.4968
vn -0.9326 -0.0045 0.3608
vn -0.9782 0.0141 0.2070
vn -0.9878 -0.0070 0.1553
vn -0.9758 0.0242 -0.2172
vn -0.6783 -0.0306 -0.7342
vn -0.8840 0.0417 -0.4657
vn -0.4451 -0.0196 -0.8953
vn -0.5001 0.0001 -0.8660
vn 0.1010 -0.0120 -0.9948
vn -0.0669 0.0065 -0.9977
vn 0.5124 -0.0254 -0.8584
vn 0.3019 0.0377 -0.9526
vn 0.7466 -0.0344 -0.6643
vn 0.6994 0.0204 -0.7145
vn 0.8048 -0.0294 -0.5928
vn 0.9065 0.0061 -0.4222
vn 0.7932 -0.0256 -0.6084
vn 0.5270 -0.0363 -0.8491
vn 0.3302 -0.0397 -0.9431
vn 0.0817 -0.0208 -0.9964
vn -0.5301 0.0132 -0.8478
vn -0.8555 0.0291 -0.5169
vn -0.9037 -0.0149 -0.4279
vn -0.9747 0.0402 -0.2200
vn -0.9933 0.0383 0.1089
vn -0.8767 -0.0007 0.4811
vn -0.8949 0.0131 0.4461
vn -0.6736 0.0072 0.7391
vn -0.7679 -0.0083 0.6405
vn -0.2495 -0.0048 0.9684
vn 0.2167 -0.0354 0.9756
vn 0.5330 -0.0420 0.8451
vn 0.9264 -0.0176 -0.3762
vn 0.7575 0.0481 -0.6510
vn 0.6398 -0.0246 -0.7682
vn 0.5885 0.0369 -0.8076
vn 0.0904 -0.0022 -0.9959
vn 0.2666 0.0054 -0.9638
vn -0.2626 0.0166 -0.9648
vn -0.2800 -0.0029 -0.9600
vn -0.5350 0.0148 -0.8448
vn -0.6682 -0.0030 -0.7440
vn -0.8142 0.0078 -0.5805
vn -0.8240 -0.0240 -0.5660
vn -0.9946 -0.0016 -0.1034
vn -0.9719 -0.0761 -0.2226
vn -0.9875 -0.0269 0.1552
vn -0.9687 -0.0049 0.2482
vn -0.8968 0.0878 0.4336
vn -0.4604 -0.0468 0.8865
vn -0.4853 0.1234 0.8656
vn -0.5717 0.0014 0.8204
vn -0.0563 0.0335 0.9979
vn -0.1068 0.0030 0.9943
vn 0.2805 -0.0822 0.9563
vn 0.1681 0.0134 0.9857
vn 0.5738 -0.0703 0.8159
vn 0.5201 -0.0035 0.8541
vn 0.7419 -0.0437 0.6691
vn 0.6146 -0.1211 0.7795
vn 0.3302 -0.1921 0.9242
vn 0.0498 -0.1762 0.9831
vn -0.1804 -0.2190 0.9589
vn -0.4755 -0.2297 0.8492
vn -0.5901 -0.1549 0.7923
vn -0.7348 -0.1993 0.6483
vn -0.7414 -0.1719 0.6487
vn -0.9565 -0.0953 0.2756
vn -0.9946 -0.1027 0.0133
vn -0.9972 -0.0172 -0.0727
vn -0.9062 -0.0196 -0.4225
vn -0.8482 0.0386 -0.5283
vn -0.7589 0.0392 -0.6501
vn -0.5919 0.0398 -0.8050
vn -0.5528 0.0590 -0.8312
vn -0.4161 0.0473 -0.9081
vn -0.0825 0.1125 -0.9902
vn 0.1243 0.0603 -0.9904
vn 0.5867 0.1307 -0.7992
vn 0.5878 0.0746 -0.8055
vn 0.8809 0.0950 -0.4637
vn 0.7484 0.1001 -0.6556
vn 0.7416 -0.0551 0.6686
vn 0.2116 -0.1302 0.9687
vn 0.2944 -0.1589 0.9424
vn -0.1748 -0.2235 0.9589
vn -0.1950 -0.2117 0.9577
vn -0.4644 -0.2333 0.8543
vn -0.7212 -0.2034 0.6622
vn -0.9552 -0.1162 0.2720
vn -0.9255 -0.1608 0.3428
vn -0.9933 -0.1102 -0.0361
vn -0.8219 0.0008 -0.5697
vn -0.5534 0.0335 -0.8322
vn -0.5282 0.0318 -0.8485
vn -0.0710 0.1396 -0.9877
vn 0.5629 0.1582 -0.8113
vn 0.7293 0.1574 -0.6658
vn 0.7637 -0.0447 0.6440
vn 0.6676 -0.0866 0.7394
vn 0.4235 -0.1054 0.8998
vn 0.4279 -0.1394 0.8930
vn -0.0378 -0.1926 0.9806
vn 0.1093 -0.1473 0.9830
vn -0.5691 -0.1988 0.7979
vn -0.7777 -0.1661 0.6063
vn -0.7109 -0.2106 0.6711
vn -0.9044 -0.1546 0.3977
vn -0.8693 -0.2162 0.4444
vn -0.9960 -0.0657 -0.0610
vn -0.9129 -0.1543 -0.3778
vn -0.8488 0.0269 -0.5281
vn -0.7541 -0.1365 -0.6424
vn -0.7523 0.0276 -0.6582
vn -0.4491 0.0508 -0.8920
vn -0.5825 0.0502 -0.8113
vn 0.0840 0.1487 -0.9853
vn 0.0244 0.1703 -0.9851
vn 0.4229 0.1878 -0.8865
vn 0.4653 0.2094 -0.8600
vn 0.6076 0.2166 -0.7641
vn 0.7396 0.1368 -0.6590
vn 0.9257 0.1160 -0.3599
vn 0.9741 0.0507 0.2204
vn 0.9359 -0.0193 0.3517
vn 0.9989 0.0333 0.0338
vn 0.8261 0.0089 0.5635
vn 0.6121 -0.1447 0.7774
vn 0.5421 -0.0666 0.8377
vn 0.2614 -0.1793 0.9484
vn 0.1191 -0.1413 0.9828
vn -0.1235 -0.1645 0.9786
vn -0.3263 -0.1899 0.9260
vn -0.4740 -0.2000 0.8575
vn -0.7163 -0.2287 0.6592
vn -0.7946 -0.1182 0.5956
vn -0.8910 -0.2330 0.3896
vn -0.9365 -0.1352 0.3235
vn -0.9738 -0.2236 -0.0402
vn -0.7605 -0.0817 -0.6442
vn -0.9205 -0.1502 -0.3606
vn -0.5639 0.0370 -0.8250
vn -0.6635 -0.1146 -0.7393
vn -0.1987 0.0919 -0.9757
vn -0.1886 0.0218 -0.9818
vn 0.1953 0.0438 -0.9798
vn 0.1083 0.1071 -0.9883
vn 0.5531 0.0955 -0.8277
vn 0.4816 0.0936 -0.8714
vn 0.8061 0.1182 -0.5799
vn 0.6797 0.1474 -0.7185
vn 0.9703 0.0897 -0.2246
vn 0.9361 0.1128 -0.3331
vn 0.9681 -0.0870 -0.2352
vn 0.9802 -0.1021 0.1693
vn 0.8573 -0.1193 -0.5009
vn 0.7063 -0.0429 -0.7066
vn 0.1806 0.0245 -0.9833
vn -0.2167 0.1420 -0.9658
vn -0.4897 0.1184 -0.8638
vn -0.7519 -0.0991 -0.6517
vn -0.9574 -0.1027 -0.2699
vn -0.9277 -0.2632 -0.2647
vn -0.9107 -0.1323 0.3914
vn -0.7238 -0.3171 0.6129
vn -0.8092 0.0674 0.5837
vn -0.6326 -0.0087 0.7744
vn -0.5697 -0.2227 0.7911
vn -0.2829 -0.1881 0.9405
vn 0.2500 -0.0788 0.9650
vn 0.5358 -0.1626 0.8286
vn 0.8112 -0.1670 0.5605
vn 0.1289 -0.7122 0.6901
vn 0.4474 -0.5081 0.7360
vn 0.5646 -0.6277 0.5359
vn 0.1992 -0.4585 0.8661
vn -0.2278 -0.6687 0.7078
vn -0.1837 -0.3906 0.9020
vn -0.5022 -0.5985 0.6241
vn -0.6265 -0.3319 0.7052
vn -0.6925 -0.5831 0.4248
vn -0.8548 -0.4014 0.3290
vn -0.8940 -0.4262 0.1379
vn -0.8825 -0.3824 -0.2739
vn -0.6512 -0.4199 -0.6321
vn -0.9117 -0.3441 -0.2243
vn -0.7126 -0.5212 -0.4697
vn -0.4025 -0.4845 -0.7767
vn -0.0855 -0.5306 -0.8433
vn -0.3911 -0.3134 -0.8653
vn 0.1261 -0.4768 -0.8699
vn -0.1844 -0.2308 -0.9554
vn 0.5840 -0.3381 -0.7380
vn 0.1110 -0.1536 -0.9819
vn 0.7914 -0.4606 -0.4020
vn 0.5507 -0.4400 -0.7093
vn 0.8600 -0.3870 -0.3326
vn 0.9378 -0.3325 -0.1004
vn 0.9104 -0.4060 -0.0803
vn 0.9370 -0.3199 0.1403
vn 0.8723 -0.4726 0.1252
vn 0.7649 -0.5054 0.3994
vn 0.6194 -0.3852 0.6840
vn 0.1164 -0.4170 0.9014
vn 0.7949 -0.4637 0.3913
vn 0.8881 -0.4489 0.0988
vn 0.8659 -0.4588 -0.1992
vn 0.8337 -0.3378 -0.4369
vn 0.6514 -0.2210 -0.7258
vn 0.2196 -0.3761 -0.9002
vn -0.0758 -0.4626 -0.8833
vn -0.3834 -0.4823 -0.7876
vn -0.7363 -0.5002 -0.4558
vn -0.8958 -0.4182 -0.1505
vn -0.9054 -0.4060 0.1243
vn -0.6000 -0.4876 0.6342
vn -0.3805 -0.5084 0.7725
vn -0.7874 -0.4122 0.4584
vn -0.8581 -0.3029 0.4146
vn -0.8399 -0.2767 -0.4669
vn -0.9149 -0.3674 -0.1673
vn -0.9136 -0.3591 0.1908
vn -0.1756 -0.3089 -0.9348
vn -0.6047 -0.2858 -0.7434
vn 0.5702 -0.2466 -0.7836
vn 0.3060 -0.2711 -0.9126
vn 0.8094 -0.2393 -0.5363
vn 0.9637 -0.1829 -0.1947
vn 0.9821 -0.1421 0.1234
vn 0.8699 -0.1955 0.4529
vn 0.6191 -0.1450 0.7718
vn 0.1780 -0.1271 0.9758
vn -0.3346 -0.2082 0.9191
vn -0.6732 -0.2615 0.6916
vn -0.6580 -0.1193 0.7435
vn -0.3720 -0.0902 0.9238
vn -0.8732 -0.1183 0.4728
vn 0.1730 -0.0166 0.9848
vn 0.6076 -0.0961 0.7884
vn 0.9226 0.0128 0.3856
vn 0.9954 -0.0122 -0.0947
vn 0.9914 0.0697 0.1110
vn 0.6445 -0.0853 -0.7598
vn 0.8975 -0.0137 -0.4408
vn 0.2846 -0.0886 -0.9545
vn -0.1987 -0.0542 -0.9786
vn -0.6469 -0.0816 -0.7582
vn -0.8426 -0.1098 -0.5272
vn -0.9805 -0.0801 -0.1792
vn -0.9742 -0.1197 0.1911
vn -0.0215 -0.4658 0.8846
vn -0.3845 -0.5608 0.7333
vn 0.2169 -0.3978 0.8915
vn 0.6003 -0.3327 0.7273
vn 0.8299 -0.2854 0.4794
vn 0.9223 -0.3340 0.1943
vn 0.8960 -0.3248 -0.3027
vn -0.2157 -0.2675 -0.9391
vn 0.1152 -0.3990 -0.9097
vn 0.3006 -0.4091 -0.8616
vn 0.5755 -0.3132 -0.7555
vn -0.7979 -0.5092 -0.3226
vn -0.5032 -0.4284 -0.7505
vn -0.8239 -0.5633 0.0622
vn -0.8121 -0.5826 0.0327
vn -0.7407 -0.5823 0.3351
vn 0.0435 -0.9080 -0.4168
vn -0.0603 -0.9456 0.3198
vn -0.0749 -0.9969 -0.0226
vn -0.3268 -0.9448 0.0253
vn -0.1461 -0.9878 -0.0540
vn 0.0204 -0.9262 -0.3765
vn 0.4449 -0.8954 -0.0151
vn 0.3978 -0.8826 0.2504
vn 0.1314 -0.8751 0.4657
vn 0.4396 -0.7774 -0.4500
vn -0.1976 -0.7983 -0.5689
vn -0.4199 -0.9022 -0.0989
vn -0.4777 -0.8782 -0.0265
vn -0.5004 0.0170 0.8656
vn -0.2879 -0.0165 0.9575
vn 0.4740 -0.1145 0.8730
vn 0.8559 -0.1235 0.5022
vn 0.9543 -0.0496 0.2947
vn 0.9577 0.0555 -0.2823
vn 0.7909 0.0641 -0.6086
vn 0.6632 0.0463 -0.7470
vn 0.3044 0.0456 -0.9514
vn -0.2473 0.0297 -0.9685
vn -0.5935 0.0056 -0.8048
vn -0.6659 -0.0423 -0.7449
vn -0.9013 -0.1523 0.4056
vn -0.9374 -0.0816 -0.3386
vn 0.8880 -0.0029 0.4598
vn -0.9875 0.0315 -0.1543
vn -0.7566 0.0211 -0.6535
vn -0.5115 0.0268 -0.8589
vn -0.2308 0.0345 -0.9724
vn 0.3342 -0.0054 -0.9425
vn 0.6032 0.0149 -0.7974
vn 0.7874 0.0554 -0.6139
vn 0.9327 0.0553 0.3564
vn 0.8535 -0.0078 0.5210
vn 0.6127 -0.0348 0.7896
vn 0.0473 -0.0007 0.9989
vn -0.2663 -0.0013 0.9639
vn -0.5794 0.0152 0.8149
vn 0.9758 0.0753 -0.2054
vn 0.7575 -0.3578 0.5461
vn -0.9811 -0.1933 -0.0058
vn -0.4651 -0.1678 0.8692
vn 0.1919 0.0804 0.9781
vn 0.6514 -0.0284 0.7582
vn 0.1730 0.0012 0.9849
vn 0.8995 -0.0697 0.4314
vn 0.5973 -0.0870 0.7973
vn 0.9904 -0.0221 0.1361
vn 0.9797 -0.0760 0.1853
vn 0.9507 0.0190 0.3096
vn 0.6268 0.1852 0.7569
vn 0.6669 0.1177 0.7358
vn 0.6073 -0.0183 0.7943
vn 0.8810 0.2040 0.4268
vn 0.5746 0.2717 0.7720
vn 0.1512 -0.0502 0.9872
vn 0.1544 0.0433 0.9871
vn 0.1458 0.1025 0.9840
vn 0.8965 -0.1746 0.4072
vn 0.9984 0.0517 0.0226
vn 0.8816 0.0929 0.4627
vn 0.9868 -0.0245 0.1598
vn 0.9802 -0.0025 -0.1980
vn 0.9739 0.0282 -0.2250
vn 0.9959 -0.0905 0.0019
vn 0.9466 0.0275 -0.3212
vn 0.9901 -0.0230 -0.1381
vn 0.8630 -0.0481 -0.5029
vn 0.8472 -0.0003 -0.5312
vn 0.6671 -0.0303 -0.7443
vn 0.6198 -0.0110 -0.7847
vn 0.2439 0.0659 -0.9676
vn 0.2617 -0.0270 -0.9648
vn -0.2345 0.0635 -0.9700
vn 0.8893 0.0133 -0.4570
vn 0.6285 0.1345 -0.7661
vn 0.8716 0.0819 -0.4833
vn 0.2342 0.0204 -0.9720
vn 0.2662 0.0828 -0.9604
vn 0.8425 -0.0088 -0.5386
vn 0.6431 -0.0346 -0.7650
vn 0.2686 -0.0993 -0.9581
vn 0.9660 0.0559 -0.2523
vn -0.1453 0.0592 -0.9876
vn -0.2073 -0.0164 -0.9781
vn -0.6207 -0.0702 -0.7809
vn -0.8702 0.0110 -0.4926
vn -0.5853 0.0498 -0.8093
vn -0.8672 0.0273 -0.4972
vn -0.6204 0.0432 -0.7831
vn -0.2015 -0.0445 -0.9785
vn -0.8949 -0.1139 -0.4314
vn -0.9817 0.0172 -0.1898
vn -0.9881 0.0045 -0.1535
vn -0.3002 -0.0077 -0.9538
vn -0.6756 -0.0787 -0.7331
vn -0.6992 0.0072 -0.7149
vn -0.8736 -0.0654 -0.4822
vn -0.8344 0.0906 -0.5436
vn -0.9794 0.0594 -0.1928
vn -0.9788 0.0331 0.2021
vn -0.9891 0.0027 0.1475
vn -0.9137 -0.0277 0.4055
vn -0.9104 -0.0293 0.4126
vn -0.7130 -0.0004 0.7012
vn -0.9859 -0.0906 0.1407
vn -0.8945 -0.0354 0.4457
vn -0.9979 0.0123 0.0643
vn -0.9800 0.0786 0.1827
vn -0.9138 0.0548 0.4025
vn -0.9861 -0.0571 -0.1560
vn -0.6892 -0.0495 0.7229
vn -0.6698 0.0015 0.7425
vn -0.7191 -0.0089 0.6948
vn -0.3333 0.0696 0.9403
vn -0.3422 0.1088 0.9333
vn -0.3239 -0.0127 0.9460
vn -0.3325 -0.0335 0.9425
vn -0.3389 0.0203 0.9406
vn 0.0550 0.9967 0.0593
vn 0.6070 0.6923 0.3902
vn 0.1597 0.9872 0.0013
vn 0.6311 -0.0464 -0.7743
vn -0.9273 -0.0481 0.3711
vn 0.9760 0.2093 0.0596
vn 0.9379 0.2382 -0.2521
vn 0.8101 0.2597 -0.5256
vn 0.6026 0.2970 -0.7407
vn 0.3006 0.2588 -0.9180
vn -0.2069 0.2508 -0.9457
vn -0.5330 0.2869 -0.7960
vn -0.8218 0.2377 -0.5179
vn -0.9599 0.2459 -0.1345
vn -0.9762 0.2135 0.0392
vn -0.6372 0.7496 -0.1792
vn -0.8856 0.2089 0.4147
vn -0.6237 0.2080 0.7535
vn -0.3052 0.3121 0.8997
vn 0.1019 0.2568 0.9611
vn 0.9041 0.0741 0.4208
vn -0.9823 0.0514 -0.1803
vn -0.7746 0.0796 0.6275
vn -0.0346 0.9888 -0.1453
vn 0.1389 0.9703 -0.1980
vn -0.1240 0.9911 -0.0480
vn 0.0010 0.9961 0.0885
vn -0.0644 0.9882 -0.1388
vn -0.0946 0.9912 0.0929
vn -0.6984 0.6555 0.2873
vn -0.3772 0.7226 0.5793
vn 0.1212 0.7118 0.6918
vn -0.7155 0.6985 0.0158
vn -0.0931 0.7654 0.6368
vn 0.7330 0.6782 0.0515
vn 0.5143 0.7598 -0.3978
vn 0.4195 0.7197 -0.5532
vn 0.6486 0.7386 -0.1837
vn 0.1399 0.8622 -0.4868
vn -0.3049 0.7689 -0.5619
vn -0.5025 0.7485 -0.4326
vn 0.3468 0.7546 0.5571
vn -0.1972 0.7468 -0.6351
vt 0.125589 0.905570
vt 0.097452 0.894871
vt 0.127313 0.894812
vt 0.098451 0.883957
vt 0.128823 0.884233
vt 0.152900 0.894778
vt 0.208856 0.907993
vt 0.150349 0.905667
vt 0.210885 0.897542
vt 0.154902 0.883995
vt 0.212377 0.887488
vt 0.255892 0.906056
vt 0.256881 0.895081
vt 0.257253 0.883955
vt 0.328472 0.893315
vt 0.412510 0.908688
vt 0.327887 0.904756
vt 0.328133 0.883162
vt 0.414248 0.898810
vt 0.470028 0.896685
vt 0.522251 0.908005
vt 0.468954 0.908177
vt 0.521492 0.888352
vt 0.469665 0.888486
vt 0.587113 0.904911
vt 0.586764 0.913139
vt 0.522616 0.898213
vt 0.586455 0.894259
vt 0.675141 0.906623
vt 0.735241 0.915936
vt 0.674356 0.916547
vt 0.735004 0.896281
vt 0.674311 0.896099
vt 0.736250 0.907277
vt 0.804896 0.918773
vt 0.805008 0.899559
vt 0.805046 0.909166
vt 0.840128 0.909235
vt 0.886691 0.920040
vt 0.839778 0.919225
vt 0.840146 0.899342
vt 0.887203 0.909564
vt 0.953846 0.922274
vt 0.839414 0.929057
vt 0.886499 0.930492
vt 0.953920 0.931094
vt 0.838836 0.938710
vt 0.886300 0.940714
vt 0.954428 0.941192
vt 0.886055 0.951038
vt 0.838129 0.949523
vt 0.954549 0.951190
vt 0.837238 0.959710
vt 0.885690 0.961044
vt 0.955346 0.960599
vt 0.836369 0.970645
vt 0.885656 0.970839
vt 0.955929 0.970625
vt 0.885369 0.979932
vt 0.835633 0.978580
vt 0.956348 0.980453
vt 0.884902 0.989735
vt 0.834872 0.988600
vt 0.956834 0.990000
vt 0.840455 0.841898
vt 0.803430 0.832466
vt 0.840816 0.831942
vt 0.891078 0.831866
vt 0.962281 0.845798
vt 0.890490 0.841059
vt 0.889866 0.851151
vt 0.840191 0.852330
vt 0.961111 0.855162
vt 0.889363 0.861142
vt 0.840085 0.862250
vt 0.960200 0.863938
vt 0.888755 0.870987
vt 0.840032 0.871414
vt 0.958906 0.873304
vt 0.888209 0.880143
vt 0.840115 0.880226
vt 0.957379 0.882832
vt 0.887780 0.889583
vt 0.840163 0.889267
vt 0.956293 0.892607
vt 0.887374 0.899655
vt 0.955464 0.902605
vt 0.954469 0.912655
vt 0.804760 0.889878
vt 0.733706 0.886305
vt 0.804323 0.880742
vt 0.732447 0.876310
vt 0.803752 0.871382
vt 0.730960 0.866613
vt 0.803432 0.861955
vt 0.729543 0.857476
vt 0.803238 0.852277
vt 0.728778 0.847797
vt 0.803218 0.842416
vt 0.728765 0.838030
vt 0.728914 0.827824
vt 0.798336 0.978743
vt 0.723363 0.983963
vt 0.723790 0.974267
vt 0.725637 0.964873
vt 0.799629 0.968861
vt 0.728019 0.955258
vt 0.800997 0.958627
vt 0.730342 0.945620
vt 0.802186 0.949047
vt 0.732486 0.935802
vt 0.803249 0.938710
vt 0.734155 0.925917
vt 0.804246 0.928626
vt 0.673001 0.927343
vt 0.671265 0.936962
vt 0.669225 0.946603
vt 0.667261 0.955219
vt 0.665521 0.964073
vt 0.663939 0.973417
vt 0.663408 0.982431
vt 0.617839 0.840452
vt 0.668705 0.829899
vt 0.668697 0.839700
vt 0.669079 0.848580
vt 0.669958 0.857640
vt 0.671158 0.866784
vt 0.672437 0.876334
vt 0.673499 0.886437
vt 0.585873 0.884410
vt 0.519529 0.878436
vt 0.584444 0.874805
vt 0.517392 0.869308
vt 0.582733 0.864878
vt 0.514717 0.859675
vt 0.581056 0.855511
vt 0.618518 0.850014
vt 0.579917 0.846992
vt 0.510867 0.840793
vt 0.579111 0.837700
vt 0.509632 0.831286
vt 0.578871 0.829294
vt 0.574311 0.979050
vt 0.507091 0.967193
vt 0.575166 0.971324
vt 0.508772 0.957558
vt 0.576682 0.961223
vt 0.511642 0.947732
vt 0.578622 0.951583
vt 0.514731 0.937969
vt 0.580858 0.942356
vt 0.517448 0.927977
vt 0.583029 0.932334
vt 0.519913 0.917981
vt 0.585012 0.922325
vt 0.466947 0.918523
vt 0.464923 0.928542
vt 0.462928 0.937799
vt 0.460884 0.947300
vt 0.459031 0.957532
vt 0.457970 0.967706
vt 0.505193 0.976446
vt 0.457203 0.976235
vt 0.509445 0.821806
vt 0.461646 0.832332
vt 0.461157 0.823277
vt 0.411863 0.843394
vt 0.462676 0.842120
vt 0.463910 0.851730
vt 0.512213 0.850430
vt 0.465645 0.861103
vt 0.467406 0.870754
vt 0.468793 0.879928
vt 0.411241 0.918439
vt 0.325878 0.915104
vt 0.409729 0.928150
vt 0.323890 0.925266
vt 0.408362 0.937527
vt 0.321451 0.934976
vt 0.407331 0.947308
vt 0.318868 0.944902
vt 0.406595 0.957279
vt 0.317017 0.954893
vt 0.406220 0.967116
vt 0.315215 0.964638
vt 0.406576 0.976426
vt 0.313961 0.972255
vt 0.410308 0.823774
vt 0.318326 0.827025
vt 0.318133 0.819624
vt 0.410976 0.833615
vt 0.320098 0.837161
vt 0.294720 0.843940
vt 0.321981 0.847282
vt 0.412850 0.853090
vt 0.323285 0.858534
vt 0.413802 0.862411
vt 0.325219 0.868469
vt 0.414434 0.871565
vt 0.327454 0.876114
vt 0.415145 0.880791
vt 0.213910 0.877273
vt 0.257333 0.874878
vt 0.256045 0.866083
vt 0.213851 0.857537
vt 0.255145 0.855754
vt 0.254034 0.845660
vt 0.293069 0.834639
vt 0.252749 0.835499
vt 0.213026 0.836449
vt 0.251888 0.825318
vt 0.212733 0.814964
vt 0.252139 0.815415
vt 0.246549 0.975975
vt 0.205987 0.969424
vt 0.247054 0.966702
vt 0.204957 0.958507
vt 0.247766 0.956246
vt 0.204229 0.947856
vt 0.248595 0.946125
vt 0.204251 0.937663
vt 0.250076 0.936243
vt 0.205357 0.927759
vt 0.251882 0.926402
vt 0.207033 0.918384
vt 0.253760 0.916545
vt 0.156574 0.873021
vt 0.213923 0.868126
vt 0.156862 0.862080
vt 0.156233 0.850838
vt 0.213532 0.846974
vt 0.155213 0.839671
vt 0.153924 0.828369
vt 0.212844 0.825681
vt 0.152674 0.817286
vt 0.152051 0.806225
vt 0.145955 0.980561
vt 0.143751 0.969540
vt 0.143258 0.959246
vt 0.143289 0.948699
vt 0.143053 0.938408
vt 0.145102 0.927445
vt 0.147515 0.916451
vt 0.129529 0.873046
vt 0.097979 0.872387
vt 0.129100 0.861747
vt 0.096565 0.860622
vt 0.128053 0.850166
vt 0.095267 0.848933
vt 0.126678 0.838531
vt 0.125551 0.827263
vt 0.092516 0.826647
vt 0.124564 0.816573
vt 0.091706 0.815695
vt 0.124394 0.805555
vt 0.118401 0.982490
vt 0.086062 0.975351
vt 0.116942 0.971537
vt 0.085595 0.963347
vt 0.116585 0.961475
vt 0.086550 0.952133
vt 0.117017 0.950189
vt 0.088788 0.940404
vt 0.118182 0.939270
vt 0.091289 0.928829
vt 0.120397 0.927850
vt 0.094082 0.917442
vt 0.122929 0.916808
vt 0.096471 0.906262
vt 0.052348 0.886688
vt 0.082292 0.880847
vt 0.082365 0.892274
vt 0.050282 0.873833
vt 0.081073 0.868407
vt 0.047915 0.860891
vt 0.079276 0.855993
vt 0.045002 0.848413
vt 0.077554 0.844586
vt 0.042424 0.836213
vt 0.075853 0.833282
vt 0.074653 0.821537
vt 0.039198 0.811040
vt 0.074046 0.809919
vt 0.038856 0.798357
vt 0.075184 0.797980
vt 0.069151 0.987367
vt 0.035406 0.975284
vt 0.069049 0.975382
vt 0.038034 0.962345
vt 0.069338 0.962984
vt 0.041120 0.949929
vt 0.071534 0.950656
vt 0.044881 0.937030
vt 0.074138 0.939097
vt 0.048122 0.924433
vt 0.076868 0.927373
vt 0.050952 0.911448
vt 0.079601 0.915678
vt 0.052517 0.899486
vt 0.081752 0.904186
vt 0.024637 0.899137
vt 0.023812 0.887227
vt 0.025045 0.909715
vt 0.025751 0.922860
vt 0.024384 0.935613
vt 0.022676 0.948980
vt 0.021468 0.963113
vt 0.019973 0.976215
vt 0.033736 0.987504
vt 0.020786 0.988312
vt 0.041167 0.786680
vt 0.028198 0.796584
vt 0.028407 0.784095
vt 0.022274 0.808098
vt 0.027797 0.808908
vt 0.026270 0.822703
vt 0.040689 0.823763
vt 0.024980 0.835193
vt 0.022643 0.847457
vt 0.022454 0.860604
vt 0.023812 0.871775
vt 0.358869 0.605286
vt 0.373728 0.586977
vt 0.378689 0.601514
vt 0.354470 0.586250
vt 0.336967 0.605000
vt 0.336167 0.584980
vt 0.320741 0.603626
vt 0.319734 0.584243
vt 0.304698 0.600497
vt 0.302559 0.582768
vt 0.288124 0.586907
vt 0.287246 0.602855
vt 0.271353 0.590749
vt 0.254331 0.591531
vt 0.268499 0.602393
vt 0.254111 0.601765
vt 0.236152 0.599714
vt 0.219714 0.595880
vt 0.238174 0.587927
vt 0.201849 0.589946
vt 0.220867 0.584363
vt 0.193891 0.575530
vt 0.206453 0.581231
vt 0.180731 0.569491
vt 0.185539 0.584607
vt 0.172942 0.576766
vt 0.418372 0.576386
vt 0.434077 0.576941
vt 0.423507 0.584387
vt 0.406952 0.581231
vt 0.410653 0.589976
vt 0.393153 0.596060
vt 0.381355 0.617505
vt 0.360868 0.619380
vt 0.398196 0.608980
vt 0.419076 0.603458
vt 0.432053 0.596874
vt 0.443051 0.588704
vt 0.177694 0.595604
vt 0.163675 0.588945
vt 0.195548 0.601921
vt 0.214907 0.606873
vt 0.232885 0.608921
vt 0.252100 0.612656
vt 0.267500 0.611427
vt 0.287372 0.611682
vt 0.321209 0.614133
vt 0.335779 0.616880
vt 0.308052 0.613867
vt 0.303960 0.633312
vt 0.251241 0.632541
vt 0.266574 0.634370
vt 0.285149 0.635449
vt 0.215038 0.629007
vt 0.231946 0.630460
vt 0.168276 0.613024
vt 0.190036 0.619210
vt 0.151383 0.606980
vt 0.443070 0.612552
vt 0.456091 0.606752
vt 0.425755 0.619566
vt 0.405308 0.628451
vt 0.387716 0.631755
vt 0.363671 0.638517
vt 0.339893 0.637446
vt 0.323166 0.634882
vt 0.323778 0.656832
vt 0.339754 0.656845
vt 0.304568 0.655345
vt 0.365907 0.656851
vt 0.395151 0.651167
vt 0.410112 0.648429
vt 0.449512 0.633263
vt 0.432742 0.640075
vt 0.159302 0.631180
vt 0.142865 0.625256
vt 0.463120 0.627072
vt 0.185531 0.639328
vt 0.211087 0.643682
vt 0.229590 0.646545
vt 0.247909 0.648932
vt 0.267395 0.651297
vt 0.284187 0.652527
vt 0.987368 0.885267
vt 0.989397 0.877074
vt 0.985482 0.894903
vt 0.985264 0.905845
vt 0.983001 0.914978
vt 0.982432 0.923586
vt 0.982998 0.932101
vt 0.981031 0.969445
vt 0.981552 0.959873
vt 0.981678 0.950832
vt 0.982452 0.942476
vt 0.983436 0.987337
vt 0.982764 0.977911
vt 0.989762 0.850136
vt 0.989707 0.859404
vt 0.989886 0.841724
vt 0.990000 0.868966
vt 0.053596 0.658828
vt 0.044449 0.646512
vt 0.056827 0.649963
vt 0.013954 0.632871
vt 0.020586 0.643956
vt 0.010706 0.640639
vt 0.030325 0.647155
vt 0.024625 0.637135
vt 0.034396 0.642827
vt 0.040298 0.652985
vt 0.031952 0.660980
vt 0.021266 0.669321
vt 0.025905 0.658854
vt 0.014059 0.661605
vt 0.020571 0.653702
vt 0.010000 0.650567
vt 0.039269 0.671845
vt 0.039890 0.662510
vt 0.048897 0.666398
vt 0.048050 0.640235
vt 0.056827 0.640170
vt 0.052450 0.632303
vt 0.039699 0.634380
vt 0.036952 0.624566
vt 0.030095 0.632881
vt 0.028463 0.625385
vt 0.019795 0.627385
vt 0.296545 0.854483
vt 0.298482 0.864813
vt 0.300811 0.874484
vt 0.302307 0.884212
vt 0.303189 0.894119
vt 0.303065 0.904703
vt 0.300853 0.914688
vt 0.298818 0.924552
vt 0.296029 0.934172
vt 0.293019 0.943763
vt 0.290736 0.953400
vt 0.288416 0.963071
vt 0.291119 0.824226
vt 0.286283 0.972632
vt 0.414910 0.889962
vt 0.617664 0.830518
vt 0.612783 0.982313
vt 0.613263 0.973006
vt 0.614635 0.963286
vt 0.615990 0.953660
vt 0.617722 0.944668
vt 0.619532 0.935120
vt 0.621205 0.925686
vt 0.623157 0.907069
vt 0.622696 0.897335
vt 0.622776 0.887809
vt 0.621737 0.878257
vt 0.620573 0.868787
vt 0.619478 0.859410
vt 0.622766 0.916273
vt 0.019162 0.822380
vt 0.016702 0.834688
vt 0.011933 0.846992
vt 0.010940 0.870854
vt 0.011222 0.898676
vt 0.012049 0.909615
vt 0.015241 0.922319
vt 0.014745 0.934908
vt 0.013595 0.948445
vt 0.013278 0.963515
vt 0.012508 0.976546
vt 0.023085 0.795657
vt 0.092065 0.804345
vt 0.093623 0.837729
vt 0.368962 0.693174
vt 0.402488 0.704190
vt 0.369490 0.709236
vt 0.423148 0.699217
vt 0.402106 0.721263
vt 0.441053 0.678088
vt 0.443630 0.693703
vt 0.416374 0.667311
vt 0.401641 0.688524
vt 0.398169 0.671248
vt 0.401349 0.743483
vt 0.424718 0.763769
vt 0.401061 0.765601
vt 0.370118 0.727234
vt 0.370691 0.747313
vt 0.366715 0.676331
vt 0.426224 0.716056
vt 0.447707 0.736747
vt 0.425552 0.739735
vt 0.437655 0.660130
vt 0.462531 0.674267
vt 0.464988 0.690406
vt 0.446465 0.711144
vt 0.467232 0.735958
vt 0.457251 0.654793
vt 0.479007 0.673123
vt 0.482271 0.690006
vt 0.134164 0.689584
vt 0.149726 0.675761
vt 0.148529 0.692602
vt 0.176460 0.696736
vt 0.178419 0.681222
vt 0.202405 0.700631
vt 0.133346 0.708951
vt 0.147975 0.736423
vt 0.131811 0.737892
vt 0.174823 0.713781
vt 0.173471 0.739585
vt 0.138282 0.649581
vt 0.153286 0.654931
vt 0.181050 0.661811
vt 0.467422 0.708214
vt 0.484589 0.735716
vt 0.472945 0.651967
vt 0.198400 0.741477
vt 0.206968 0.665787
vt 0.223745 0.719449
vt 0.240012 0.745284
vt 0.221761 0.743321
vt 0.245100 0.671173
vt 0.227685 0.668997
vt 0.199967 0.717740
vt 0.241908 0.720523
vt 0.261079 0.748061
vt 0.265079 0.672968
vt 0.204894 0.684934
vt 0.225222 0.703261
vt 0.226905 0.688432
vt 0.242212 0.704622
vt 0.242645 0.690227
vt 0.262719 0.705988
vt 0.283423 0.693379
vt 0.282843 0.707503
vt 0.304739 0.694787
vt 0.304221 0.708511
vt 0.322273 0.708498
vt 0.282331 0.723080
vt 0.303664 0.749537
vt 0.281626 0.749465
vt 0.283303 0.674568
vt 0.304512 0.676381
vt 0.262676 0.721956
vt 0.322302 0.723319
vt 0.323056 0.749066
vt 0.323042 0.677272
vt 0.341684 0.694944
vt 0.341691 0.709036
vt 0.340558 0.677580
vt 0.341982 0.724835
vt 0.342438 0.749282
vt 0.068484 0.743529
vt 0.084846 0.779787
vt 0.059708 0.757175
vt 0.147755 0.710420
vt 0.303683 0.723663
vt 0.447704 0.761082
vt 0.465840 0.761683
vt 0.483202 0.762038
vt 0.149412 0.762223
vt 0.133042 0.764500
vt 0.173187 0.763850
vt 0.198026 0.764849
vt 0.220278 0.767170
vt 0.237914 0.769225
vt 0.258910 0.772795
vt 0.281077 0.774899
vt 0.257794 0.791755
vt 0.303619 0.773803
vt 0.323700 0.774278
vt 0.343264 0.772699
vt 0.371619 0.768446
vt 0.420034 0.683697
vt 0.135657 0.671733
vt 0.262997 0.691601
vt 0.321964 0.695067
vt 0.050973 0.730962
vt 0.036561 0.743007
vt 0.074075 0.705244
vt 0.079061 0.727066
vt 0.064415 0.715618
vt 0.088284 0.713218
vt 0.103596 0.693640
vt 0.114671 0.707493
vt 0.116234 0.748391
vt 0.085496 0.686655
vt 0.116234 0.723691
vt 0.062664 0.779738
vt 0.037008 0.763704
vt 0.028180 0.751425
vt 0.048599 0.772809
vt 0.024753 0.732438
vt 0.035224 0.696190
vt 0.047483 0.686807
vt 0.065772 0.685472
vt 0.303490 0.792192
vt 0.343063 0.790798
vt 0.371136 0.783979
vt 0.400803 0.781321
vt 0.424402 0.779786
vt 0.448523 0.777488
vt 0.479727 0.779785
vt 0.151120 0.778748
vt 0.196366 0.779440
vt 0.217439 0.782841
vt 0.235596 0.787247
vt 0.963260 0.835797
vt 0.797589 0.988623
vt 0.207365 0.979402
vt 0.086927 0.986858
vt 0.427642 0.569573
vt 0.387174 0.584601
vt 0.030022 0.673246
vt 0.045362 0.625155
vt 0.291659 0.814016
vt 0.010000 0.859671
vt 0.010027 0.887403
vt 0.014267 0.990000
vt 0.022115 0.781699
vt 0.485103 0.707898
vt 0.102336 0.769237
vt 0.280697 0.794297
vt 0.022822 0.710394
vt 0.324393 0.794461
vt 0.464633 0.778818
vt 0.136138 0.781833
vt 0.172362 0.783146
s 1
g torchstick_Material.003
usemtl Material.003
f 440/1/1 2/2/2 441/3/3
f 441/3/3 163/4/4 442/5/5
f 3/6/6 147/7/7 162/8/8
f 4/9/9 148/10/10 133/11/11
f 328/12/12 4/9/9 329/13/13
f 329/13/13 133/11/11 330/14/14
f 308/15/15 103/16/16 309/17/17
f 307/18/18 6/19/19 308/15/15
f 341/20/20 88/21/21 342/22/22
f 102/23/23 341/20/20 340/24/24
f 88/21/21 361/25/25 360/26/26
f 7/27/27 362/28/28 361/25/25
f 374/29/29 58/30/30 375/31/31
f 72/32/32 374/29/29 373/33/33
f 9/34/34 57/35/35 58/30/30
f 9/34/34 43/36/36 10/37/37
f 390/38/38 28/39/39 391/40/40
f 389/41/41 11/42/42 390/38/38
f 11/42/42 13/43/43 28/39/39
f 28/39/39 392/44/44 391/40/40
f 29/45/45 13/43/43 14/46/46
f 29/45/45 393/47/47 392/44/44
f 30/48/48 14/46/46 15/49/49
f 393/47/47 31/50/50 394/51/51
f 31/50/50 15/49/49 16/52/52
f 31/50/50 395/53/53 394/51/51
f 32/54/54 16/52/52 17/55/55
f 32/54/54 396/56/56 395/53/53
f 33/57/57 17/55/55 18/58/58
f 396/56/56 34/59/59 397/60/60
f 34/59/59 18/58/58 19/61/61
f 397/60/60 35/62/62 382/63/63
f 35/62/62 19/61/61 20/64/64
f 383/65/65 50/66/66 382/67/63
f 35/68/62 21/69/67 36/70/68
f 383/65/65 37/71/69 384/72/70
f 36/70/68 22/73/71 37/71/69
f 384/72/70 38/74/72 385/75/73
f 37/71/69 23/76/74 38/74/72
f 385/75/73 39/77/75 386/78/76
f 38/74/72 24/79/77 39/77/75
f 386/78/76 40/80/78 387/81/79
f 39/77/75 25/82/80 40/80/78
f 387/81/79 41/83/81 388/84/82
f 40/80/78 26/85/83 41/83/81
f 388/84/82 42/86/84 389/41/41
f 41/83/81 27/87/85 42/86/84
f 11/42/42 27/87/85 12/88/86
f 44/89/87 72/32/32 71/90/88
f 45/91/89 71/90/88 70/92/90
f 46/93/91 70/92/90 69/94/92
f 47/95/93 69/94/92 68/96/94
f 48/97/95 68/96/94 67/98/96
f 49/99/97 67/98/96 66/100/98
f 50/66/66 66/100/98 65/101/99
f 51/102/100 65/103/99 64/104/101
f 51/102/100 63/105/102 52/106/103
f 52/106/103 62/107/104 53/108/105
f 53/108/105 61/109/106 54/110/107
f 54/110/107 60/111/108 55/112/109
f 55/112/109 59/113/110 56/114/111
f 56/114/111 58/30/30 57/35/35
f 375/31/31 59/113/110 376/115/112
f 376/115/112 60/111/108 377/116/113
f 377/116/113 61/109/106 378/117/114
f 378/117/114 62/107/104 379/118/115
f 379/118/115 63/105/102 380/119/116
f 380/119/116 64/104/101 381/120/117
f 381/120/117 65/103/99 366/121/118
f 79/122/119 366/123/118 367/124/120
f 66/100/98 368/125/121 367/124/120
f 67/98/96 369/126/122 368/125/121
f 68/96/94 370/127/123 369/126/122
f 69/94/92 371/128/124 370/127/123
f 70/92/90 372/129/125 371/128/124
f 71/90/88 373/33/33 372/129/125
f 102/23/23 363/130/126 362/28/28
f 101/131/127 364/132/128 363/130/126
f 100/133/129 365/134/130 364/132/128
f 99/135/131 350/136/132 365/134/130
f 78/137/133 350/136/132 351/138/134
f 97/139/135 352/140/136 351/138/134
f 96/141/137 353/142/138 352/140/136
f 353/143/138 94/144/139 354/145/140
f 354/145/140 93/146/141 355/147/142
f 355/147/142 92/148/143 356/149/144
f 356/149/144 91/150/145 357/151/146
f 357/151/146 90/152/147 358/153/148
f 358/153/148 89/154/149 359/155/150
f 359/155/150 88/21/21 360/26/26
f 342/22/22 89/154/149 343/156/151
f 343/156/151 90/152/147 344/157/152
f 344/157/152 91/150/145 345/158/153
f 345/158/153 92/148/143 346/159/154
f 346/159/154 93/146/141 347/160/155
f 347/160/155 94/144/139 348/161/156
f 348/161/156 95/162/157 349/163/158
f 95/164/157 334/165/159 349/166/158
f 112/167/160 334/165/159 335/168/161
f 97/139/135 336/169/162 335/168/161
f 98/170/163 337/171/164 336/169/162
f 99/135/131 338/172/165 337/171/164
f 100/133/129 339/173/166 338/172/165
f 101/131/127 340/24/24 339/173/166
f 309/17/17 104/174/167 310/175/168
f 310/175/168 105/176/169 311/177/170
f 311/177/170 106/178/171 312/179/172
f 312/179/172 107/180/173 313/181/174
f 313/181/174 108/182/175 314/183/176
f 314/183/176 109/184/177 315/185/178
f 315/185/178 110/186/179 316/187/180
f 110/188/179 317/189/181 316/190/180
f 111/191/182 302/192/183 317/189/181
f 122/193/184 302/192/183 303/194/185
f 113/195/186 304/196/187 303/194/185
f 114/197/188 305/198/189 304/196/187
f 115/199/190 306/200/191 305/198/189
f 116/201/192 307/18/18 306/200/191
f 330/14/14 134/202/193 331/203/194
f 134/202/193 332/204/195 331/203/194
f 332/204/195 136/205/196 333/206/197
f 136/205/196 318/207/198 333/206/197
f 123/208/199 318/207/198 319/209/200
f 138/210/201 320/211/202 319/209/200
f 320/211/202 140/212/203 321/213/204
f 321/214/204 141/215/205 322/216/206
f 322/216/206 142/217/207 323/218/208
f 323/218/208 143/219/209 324/220/210
f 324/220/210 144/221/211 325/222/212
f 325/222/212 145/223/213 326/224/214
f 326/224/214 146/225/215 327/226/216
f 327/226/216 147/7/7 328/12/12
f 133/11/11 149/227/217 134/202/193
f 135/228/218 149/227/217 150/229/219
f 136/205/196 150/229/219 151/230/220
f 137/231/221 151/230/220 152/232/222
f 138/210/201 152/232/222 153/233/223
f 139/234/224 153/233/223 154/235/225
f 140/212/203 154/235/225 155/236/226
f 141/215/205 155/237/226 156/238/227
f 141/215/205 157/239/228 142/217/207
f 142/217/207 158/240/229 143/219/209
f 143/219/209 159/241/230 144/221/211
f 144/221/211 160/242/231 145/223/213
f 145/223/213 161/243/232 146/225/215
f 146/225/215 162/8/8 147/7/7
f 163/4/4 443/244/233 442/5/5
f 164/245/234 444/246/235 443/244/233
f 165/247/236 445/248/237 444/246/235
f 166/249/238 430/250/239 445/248/237
f 153/233/223 430/250/239 431/251/240
f 168/252/241 432/253/242 431/251/240
f 169/254/243 433/255/244 432/253/242
f 433/256/244 171/257/245 434/258/246
f 434/258/246 172/259/247 435/260/248
f 435/260/248 173/261/249 436/262/250
f 436/262/250 174/263/251 437/264/252
f 437/264/252 175/265/253 438/266/254
f 438/266/254 176/267/255 439/268/256
f 439/268/256 177/269/257 440/1/1
f 1/270/258 426/271/259 425/272/260
f 192/273/261 427/274/262 426/271/259
f 191/275/263 428/276/264 427/274/262
f 190/277/265 429/278/266 428/276/264
f 189/279/267 414/280/268 429/278/266
f 168/252/241 414/280/268 415/281/269
f 187/282/270 416/283/271 415/281/269
f 186/284/272 417/285/273 416/283/271
f 417/286/273 184/287/274 418/288/275
f 418/288/275 183/289/276 419/290/277
f 419/290/277 182/291/278 420/292/279
f 420/292/279 181/293/280 421/294/281
f 421/294/281 180/295/282 422/296/283
f 422/296/283 179/297/284 423/298/285
f 423/298/285 178/299/286 424/300/287
f 178/299/286 425/272/260 424/300/287
f 1/270/258 406/301/288 405/302/289
f 406/301/288 179/297/284 407/303/290
f 407/303/290 180/295/282 408/304/291
f 408/304/291 181/293/280 409/305/292
f 409/305/292 182/291/278 410/306/293
f 410/306/293 183/289/276 411/307/294
f 411/307/294 184/287/274 412/308/295
f 412/308/295 185/309/296 413/310/297
f 185/311/296 398/312/298 413/313/297
f 203/314/299 398/312/298 399/315/300
f 187/282/270 400/316/301 399/315/300
f 188/317/302 401/318/303 400/316/301
f 189/279/267 402/319/304 401/318/303
f 190/277/265 403/320/305 402/319/304
f 191/275/263 404/321/306 403/320/305
f 192/273/261 405/302/289 404/321/306
f 209/322/307 207/323/308 210/324/309
f 206/325/310 211/326/311 205/327/312
f 205/327/312 212/328/313 204/329/314
f 204/329/314 213/330/315 203/331/299
f 213/330/315 202/332/316 203/331/299
f 214/333/317 201/334/318 202/332/316
f 200/335/319 215/336/320 216/337/321
f 217/338/322 200/335/319 216/337/321
f 218/339/323 199/340/324 217/338/322
f 219/341/325 198/342/326 218/339/323
f 219/341/325 196/343/327 197/344/328
f 195/345/329 220/346/330 221/347/331
f 194/348/332 221/349/331 222/350/333
f 193/351/334 222/350/333 223/352/335
f 224/353/336 193/351/334 223/352/335
f 207/323/308 224/353/336 210/324/309
f 209/322/307 226/354/337 225/355/338
f 210/324/309 227/356/339 226/354/337
f 224/353/336 228/357/340 227/356/339
f 229/358/341 223/352/335 222/350/333
f 222/350/333 230/359/342 229/358/341
f 221/347/331 231/360/343 230/361/342
f 220/346/330 232/362/344 231/360/343
f 219/341/325 233/363/345 232/362/344
f 218/339/323 234/364/346 233/363/345
f 234/364/346 216/337/321 235/365/347
f 216/337/321 236/366/348 235/365/347
f 237/367/349 215/336/320 214/333/317
f 225/355/338 211/326/311 209/322/307
f 239/368/350 211/326/311 240/369/351
f 212/328/313 238/370/352 213/330/315
f 213/330/315 237/367/349 214/333/317
f 242/371/353 237/367/349 238/370/352
f 244/372/354 236/366/348 243/373/355
f 236/366/348 241/374/356 243/373/355
f 246/375/357 234/364/346 245/376/358
f 235/365/347 245/376/358 234/364/346
f 232/362/344 248/377/359 231/360/343
f 247/378/360 233/363/345 246/375/357
f 230/361/342 248/377/359 250/379/361
f 249/380/362 230/359/342 250/381/361
f 249/380/362 228/357/340 229/358/341
f 227/356/339 251/382/363 252/383/364
f 227/356/339 253/384/365 226/354/337
f 254/385/366 226/354/337 253/384/365
f 225/355/338 255/386/367 240/369/351
f 238/370/352 256/387/368 242/371/353
f 256/387/368 240/369/351 255/386/367
f 258/388/369 255/386/367 259/389/370
f 257/390/371 256/387/368 258/388/369
f 255/386/367 260/391/372 259/389/370
f 254/385/366 261/392/373 260/391/372
f 261/392/373 252/383/364 262/393/374
f 264/394/375 251/382/363 249/380/362
f 252/383/364 263/395/376 262/393/374
f 250/379/361 266/396/377 265/397/378
f 249/380/362 265/398/378 264/394/375
f 267/399/379 248/377/359 247/378/360
f 268/400/380 247/378/360 246/375/357
f 246/375/357 269/401/381 268/400/380
f 270/402/382 243/373/355 271/403/383
f 269/401/381 244/372/354 270/402/382
f 241/374/356 271/403/383 243/373/355
f 241/374/356 257/390/371 272/404/384
f 274/405/385 24/79/77 273/406/386
f 27/87/85 275/407/387 276/408/388
f 25/82/80 275/407/387 26/85/83
f 277/409/389 27/87/85 276/408/388
f 14/46/46 278/410/390 279/411/391
f 12/88/86 278/410/390 13/43/43
f 279/411/391 15/49/49 14/46/46
f 283/412/392 17/55/55 282/413/393
f 17/55/55 281/414/394 282/413/393
f 281/414/394 15/49/49 280/415/395
f 19/61/61 285/416/396 20/64/64
f 19/61/61 283/412/392 284/417/397
f 22/73/71 286/418/398 287/419/399
f 21/69/67 285/420/396 286/418/398
f 23/76/74 287/419/399 288/421/400
f 24/79/77 288/421/400 273/406/386
f 281/422/394 289/423/401 282/424/393
f 273/425/386 291/426/402 274/427/385
f 293/428/403 292/429/404 294/430/405
f 290/431/406 294/430/405 289/423/401
f 295/432/407 277/433/389 296/434/408
f 295/432/407 293/428/403 290/431/406
f 296/434/408 276/435/388 297/436/409
f 297/436/409 293/428/403 296/434/408
f 275/437/387 291/426/402 297/436/409
f 276/435/388 275/437/387 297/436/409
f 279/438/391 295/432/407 298/439/410
f 280/440/395 279/438/391 298/439/410
f 281/422/394 298/439/410 290/431/406
f 298/439/410 295/432/407 290/431/406
f 299/441/411 282/424/393 289/423/401
f 283/442/392 299/441/411 284/443/397
f 289/423/401 300/444/412 299/441/411
f 300/444/412 284/443/397 299/441/411
f 286/445/398 300/444/412 301/446/413
f 301/446/413 287/447/399 286/445/398
f 294/430/405 301/446/413 300/444/412
f 301/446/413 288/448/400 287/447/399
f 292/429/404 273/425/386 288/448/400
f 112/167/160 303/194/185 302/192/183
f 121/449/414 303/194/185 304/196/187
f 120/450/415 304/196/187 305/198/189
f 119/451/416 305/198/189 306/200/191
f 118/452/417 306/200/191 307/18/18
f 5/453/418 307/18/18 308/15/15
f 309/17/17 5/453/418 308/15/15
f 310/175/168 132/454/419 309/17/17
f 311/177/170 131/455/420 310/175/168
f 312/179/172 130/456/421 311/177/170
f 313/181/174 129/457/422 312/179/172
f 314/183/176 128/458/423 313/181/174
f 315/185/178 127/459/424 314/183/176
f 316/187/180 126/460/425 315/185/178
f 124/461/426 316/190/180 317/189/181
f 123/208/199 317/189/181 302/192/183
f 137/231/221 319/209/200 318/207/198
f 124/461/426 319/209/200 320/211/202
f 321/213/204 124/461/426 320/211/202
f 322/216/206 125/462/427 321/214/204
f 323/218/208 126/460/425 322/216/206
f 324/220/210 127/459/424 323/218/208
f 325/222/212 128/458/423 324/220/210
f 326/224/214 129/457/422 325/222/212
f 327/226/216 130/456/421 326/224/214
f 328/12/12 131/455/420 327/226/216
f 329/13/13 132/454/419 328/12/12
f 118/452/417 329/13/13 330/14/14
f 119/451/416 330/14/14 331/203/194
f 120/450/415 331/203/194 332/204/195
f 121/449/414 332/204/195 333/206/197
f 122/193/184 333/206/197 318/207/198
f 96/141/137 335/168/161 334/165/159
f 113/195/186 335/168/161 336/169/162
f 114/197/188 336/169/162 337/171/164
f 115/199/190 337/171/164 338/172/165
f 116/201/192 338/172/165 339/173/166
f 117/463/428 339/173/166 340/24/24
f 341/20/20 117/463/428 340/24/24
f 342/22/22 6/19/19 341/20/20
f 343/156/151 103/16/16 342/22/22
f 344/157/152 104/174/167 343/156/151
f 345/158/153 105/176/169 344/157/152
f 346/159/154 106/178/171 345/158/153
f 347/160/155 107/180/173 346/159/154
f 348/161/156 108/182/175 347/160/155
f 349/163/158 109/184/177 348/161/156
f 111/191/182 349/166/158 334/165/159
f 98/170/163 351/138/134 350/136/132
f 79/122/119 351/138/134 352/140/136
f 80/464/429 352/140/136 353/142/138
f 354/145/140 80/465/429 353/143/138
f 355/147/142 81/466/430 354/145/140
f 356/149/144 82/467/431 355/147/142
f 357/151/146 83/468/432 356/149/144
f 358/153/148 84/469/433 357/151/146
f 359/155/150 85/470/434 358/153/148
f 360/26/26 86/471/435 359/155/150
f 8/472/436 360/26/26 361/25/25
f 73/473/437 361/25/25 362/28/28
f 74/474/438 362/28/28 363/130/126
f 75/475/439 363/130/126 364/132/128
f 76/476/440 364/132/128 365/134/130
f 77/477/441 365/134/130 350/136/132
f 366/123/118 66/100/98 367/124/120
f 78/137/133 367/124/120 368/125/121
f 77/477/441 368/125/121 369/126/122
f 76/476/440 369/126/122 370/127/123
f 75/475/439 370/127/123 371/128/124
f 74/474/438 371/128/124 372/129/125
f 73/473/437 372/129/125 373/33/33
f 8/472/436 373/33/33 374/29/29
f 375/31/31 8/472/436 374/29/29
f 376/115/112 87/478/442 375/31/31
f 377/116/113 86/471/435 376/115/112
f 378/117/114 85/470/434 377/116/113
f 379/118/115 84/469/433 378/117/114
f 380/119/116 83/468/432 379/118/115
f 381/120/117 82/467/431 380/119/116
f 366/121/118 81/466/430 381/120/117
f 382/67/63 36/70/68 383/65/65
f 384/72/70 49/99/97 383/65/65
f 385/75/73 48/97/95 384/72/70
f 386/78/76 47/95/93 385/75/73
f 387/81/79 46/93/91 386/78/76
f 44/89/87 387/81/79 388/84/82
f 43/36/36 388/84/82 389/41/41
f 10/37/37 389/41/41 390/38/38
f 391/40/40 10/37/37 390/38/38
f 392/44/44 57/35/35 391/40/40
f 393/47/47 56/114/111 392/44/44
f 394/51/51 55/112/109 393/47/47
f 395/53/53 54/110/107 394/51/51
f 396/56/56 53/108/105 395/53/53
f 397/60/60 52/106/103 396/56/56
f 382/63/63 51/102/100 397/60/60
f 186/284/272 399/315/300 398/312/298
f 400/316/301 203/314/299 399/315/300
f 401/318/303 204/479/314 400/316/301
f 402/319/304 205/480/312 401/318/303
f 403/320/305 206/481/310 402/319/304
f 208/482/443 403/320/305 404/321/306
f 405/302/289 208/482/443 404/321/306
f 194/483/332 405/302/289 406/301/288
f 195/484/329 406/301/288 407/303/290
f 196/485/327 407/303/290 408/304/291
f 197/486/328 408/304/291 409/305/292
f 410/306/293 197/486/328 409/305/292
f 411/307/294 198/487/326 410/306/293
f 412/308/295 199/488/324 411/307/294
f 413/310/297 200/489/319 412/308/295
f 202/490/316 413/313/297 398/312/298
f 188/317/302 415/281/269 414/280/268
f 169/254/243 415/281/269 416/283/271
f 170/491/444 416/283/271 417/285/273
f 171/257/245 417/286/273 418/288/275
f 172/259/247 418/288/275 419/290/277
f 420/292/279 172/259/247 419/290/277
f 421/294/281 173/261/249 420/292/279
f 422/296/283 174/263/251 421/294/281
f 423/298/285 175/265/253 422/296/283
f 424/300/287 176/267/255 423/298/285
f 2/2/2 424/300/287 425/272/260
f 163/4/4 425/272/260 426/271/259
f 164/245/234 426/271/259 427/274/262
f 165/247/236 427/274/262 428/276/264
f 166/249/238 428/276/264 429/278/266
f 167/492/445 429/278/266 414/280/268
f 167/492/445 431/251/240 430/250/239
f 154/235/225 431/251/240 432/253/242
f 155/236/226 432/253/242 433/255/244
f 156/238/227 433/256/244 434/258/246
f 435/260/248 156/238/227 434/258/246
f 436/262/250 157/239/228 435/260/248
f 437/264/252 158/240/229 436/262/250
f 438/266/254 159/241/230 437/264/252
f 439/268/256 160/242/231 438/266/254
f 440/1/1 161/243/232 439/268/256
f 441/3/3 162/8/8 440/1/1
f 442/5/5 3/6/6 441/3/3
f 443/244/233 148/10/10 442/5/5
f 150/229/219 443/244/233 444/246/235
f 151/230/220 444/246/235 445/248/237
f 152/232/222 445/248/237 430/250/239
f 446/493/446 494/494/447 509/495/448
f 495/496/449 450/497/450 494/494/447
f 495/496/449 455/498/451 496/499/452
f 527/500/453 449/501/454 526/502/455
f 510/503/456 557/504/457 556/505/458
f 447/506/459 510/503/456 525/507/460
f 541/508/461 261/392/373 526/502/455
f 453/509/462 512/510/463 511/511/464
f 527/500/453 263/395/376 528/512/465
f 496/499/452 458/513/466 497/514/467
f 456/515/468 513/516/469 512/510/463
f 528/512/465 264/394/375 529/517/470
f 497/514/467 461/518/471 498/519/472
f 498/520/472 464/521/473 499/522/474
f 464/521/473 500/523/475 499/522/474
f 467/524/476 501/525/477 500/523/475
f 462/526/478 515/527/479 514/528/480
f 515/527/479 468/529/481 516/530/482
f 530/531/483 266/396/377 531/532/484
f 531/532/484 267/399/379 532/533/485
f 459/534/486 514/535/480 513/516/469
f 529/517/470 265/398/378 530/536/483
f 468/529/481 517/537/487 516/530/482
f 267/399/379 533/538/488 532/533/485
f 479/539/489 519/540/490 518/541/491
f 269/401/381 535/542/492 534/543/493
f 471/544/494 518/541/491 517/537/487
f 268/400/380 534/543/493 533/538/488
f 480/545/495 520/546/496 519/540/490
f 270/402/382 536/547/497 535/542/492
f 470/548/498 502/549/499 501/525/477
f 473/550/500 503/551/501 502/549/499
f 475/552/502 504/553/503 503/551/501
f 504/553/503 482/554/504 505/555/505
f 505/555/505 485/556/506 506/557/507
f 485/556/506 507/558/508 506/557/507
f 483/559/509 522/560/510 521/561/511
f 537/562/512 257/390/371 538/563/513
f 481/564/514 521/561/511 520/546/496
f 536/547/497 272/404/384 537/562/512
f 522/560/510 489/565/515 523/566/516
f 257/390/371 539/567/517 538/563/513
f 507/558/508 491/568/518 508/569/519
f 508/569/519 446/493/446 509/495/448
f 258/388/369 540/570/520 539/567/517
f 540/570/520 260/391/372 541/508/461
f 523/566/516 492/571/521 524/572/522
f 524/572/522 447/506/459 525/507/460
f 542/573/523 454/574/524 545/575/525
f 449/501/454 495/496/449 494/494/447
f 456/515/468 495/496/449 496/499/452
f 497/514/467 456/515/468 496/499/452
f 498/519/472 459/534/486 497/514/467
f 499/522/474 462/526/478 498/520/472
f 500/523/475 465/576/526 499/522/474
f 471/544/494 500/523/475 501/525/477
f 479/539/489 501/525/477 502/549/499
f 480/545/495 502/549/499 503/551/501
f 481/564/514 503/551/501 504/553/503
f 505/555/505 481/564/514 504/553/503
f 486/577/527 505/555/505 506/557/507
f 489/565/515 506/557/507 507/558/508
f 508/569/519 489/565/515 507/558/508
f 509/495/448 492/571/521 508/569/519
f 450/497/450 509/495/448 494/494/447
f 450/497/450 511/511/464 510/503/456
f 511/511/464 558/578/528 557/504/457
f 558/578/528 513/516/469 559/579/529
f 559/579/529 514/535/480 560/580/530
f 514/528/480 561/581/531 560/582/530
f 561/581/531 516/530/482 562/583/532
f 516/530/482 563/584/533 562/583/532
f 517/537/487 564/585/534 563/584/533
f 518/541/491 565/586/535 564/585/534
f 565/586/535 520/546/496 550/587/536
f 551/588/537 478/589/538 550/587/536
f 521/561/511 552/590/539 551/588/537
f 552/590/539 523/566/516 553/591/540
f 553/591/540 524/572/522 554/592/541
f 554/592/541 525/507/460 555/593/542
f 525/507/460 556/505/458 555/593/542
f 526/502/455 262/393/374 527/500/453
f 528/512/465 452/594/543 527/500/453
f 529/517/470 455/498/451 528/512/465
f 530/536/483 458/513/466 529/517/470
f 531/532/484 461/595/471 530/531/483
f 532/533/485 464/521/473 531/532/484
f 470/548/498 532/533/485 533/538/488
f 473/550/500 533/538/488 534/543/493
f 475/552/502 534/543/493 535/542/492
f 477/596/544 535/542/492 536/547/497
f 537/562/512 477/596/544 536/547/497
f 538/563/513 482/554/504 537/562/512
f 488/597/545 538/563/513 539/567/517
f 491/568/518 539/567/517 540/570/520
f 446/493/446 540/570/520 541/508/461
f 449/501/454 541/508/461 526/502/455
f 547/598/546 545/575/525 546/599/547
f 549/600/548 543/601/549 548/602/550
f 544/603/551 487/604/552 490/605/553
f 448/606/554 542/573/523 543/601/549
f 548/602/550 542/573/523 547/598/546
f 484/607/555 544/603/551 549/600/548
f 493/608/556 543/601/549 544/603/551
f 545/575/525 454/574/524 457/609/557
f 546/599/547 463/610/558 466/611/559
f 457/609/557 460/612/560 545/575/525
f 545/575/525 460/612/560 463/610/558
f 466/611/559 469/613/561 546/599/547
f 469/613/561 547/598/546 546/599/547
f 547/598/546 474/614/562 548/602/550
f 548/602/550 476/615/563 549/600/548
f 549/600/548 476/615/563 478/616/538
f 490/605/553 493/608/556 544/603/551
f 478/616/538 484/607/555 549/600/548
f 520/546/496 551/588/537 550/587/536
f 487/617/552 551/588/537 552/590/539
f 553/591/540 487/617/552 552/590/539
f 493/618/556 553/591/540 554/592/541
f 448/619/554 554/592/541 555/593/542
f 451/620/564 555/593/542 556/505/458
f 557/504/457 451/620/564 556/505/458
f 558/578/528 454/621/524 557/504/457
f 559/579/529 457/622/557 558/578/528
f 463/623/558 559/579/529 560/580/530
f 466/624/559 560/582/530 561/581/531
f 562/583/532 466/624/559 561/581/531
f 472/625/565 562/583/532 563/584/533
f 474/626/562 563/584/533 564/585/534
f 476/627/563 564/585/534 565/586/535
f 550/587/536 476/627/563 565/586/535
f 440/1/1 177/269/257 2/2/2
f 441/3/3 2/2/2 163/4/4
f 3/6/6 4/9/9 147/7/7
f 4/9/9 3/6/6 148/10/10
f 328/12/12 147/7/7 4/9/9
f 329/13/13 4/9/9 133/11/11
f 308/15/15 6/19/19 103/16/16
f 307/18/18 117/463/428 6/19/19
f 341/20/20 7/27/27 88/21/21
f 102/23/23 7/27/27 341/20/20
f 88/21/21 7/27/27 361/25/25
f 7/27/27 102/23/23 362/28/28
f 374/29/29 9/34/34 58/30/30
f 72/32/32 9/34/34 374/29/29
f 9/34/34 10/37/37 57/35/35
f 9/34/34 72/32/32 43/36/36
f 390/38/38 11/42/42 28/39/39
f 389/41/41 42/86/84 11/42/42
f 11/42/42 12/88/86 13/43/43
f 28/39/39 29/45/45 392/44/44
f 29/45/45 28/39/39 13/43/43
f 29/45/45 30/48/48 393/47/47
f 30/48/48 29/45/45 14/46/46
f 393/47/47 30/48/48 31/50/50
f 31/50/50 30/48/48 15/49/49
f 31/50/50 32/54/54 395/53/53
f 32/54/54 31/50/50 16/52/52
f 32/54/54 33/57/57 396/56/56
f 33/57/57 32/54/54 17/55/55
f 396/56/56 33/57/57 34/59/59
f 34/59/59 33/57/57 18/58/58
f 397/60/60 34/59/59 35/62/62
f 35/62/62 34/59/59 19/61/61
f 383/65/65 49/99/97 50/66/66
f 35/68/62 20/628/64 21/69/67
f 383/65/65 36/70/68 37/71/69
f 36/70/68 21/69/67 22/73/71
f 384/72/70 37/71/69 38/74/72
f 37/71/69 22/73/71 23/76/74
f 385/75/73 38/74/72 39/77/75
f 38/74/72 23/76/74 24/79/77
f 386/78/76 39/77/75 40/80/78
f 39/77/75 24/79/77 25/82/80
f 387/81/79 40/80/78 41/83/81
f 40/80/78 25/82/80 26/85/83
f 388/84/82 41/83/81 42/86/84
f 41/83/81 26/85/83 27/87/85
f 11/42/42 42/86/84 27/87/85
f 44/89/87 43/36/36 72/32/32
f 45/91/89 44/89/87 71/90/88
f 46/93/91 45/91/89 70/92/90
f 47/95/93 46/93/91 69/94/92
f 48/97/95 47/95/93 68/96/94
f 49/99/97 48/97/95 67/98/96
f 50/66/66 49/99/97 66/100/98
f 51/102/100 50/629/66 65/103/99
f 51/102/100 64/104/101 63/105/102
f 52/106/103 63/105/102 62/107/104
f 53/108/105 62/107/104 61/109/106
f 54/110/107 61/109/106 60/111/108
f 55/112/109 60/111/108 59/113/110
f 56/114/111 59/113/110 58/30/30
f 375/31/31 58/30/30 59/113/110
f 376/115/112 59/113/110 60/111/108
f 377/116/113 60/111/108 61/109/106
f 378/117/114 61/109/106 62/107/104
f 379/118/115 62/107/104 63/105/102
f 380/119/116 63/105/102 64/104/101
f 381/120/117 64/104/101 65/103/99
f 79/122/119 80/464/429 366/123/118
f 66/100/98 67/98/96 368/125/121
f 67/98/96 68/96/94 369/126/122
f 68/96/94 69/94/92 370/127/123
f 69/94/92 70/92/90 371/128/124
f 70/92/90 71/90/88 372/129/125
f 71/90/88 72/32/32 373/33/33
f 102/23/23 101/131/127 363/130/126
f 101/131/127 100/133/129 364/132/128
f 100/133/129 99/135/131 365/134/130
f 99/135/131 98/170/163 350/136/132
f 78/137/133 77/477/441 350/136/132
f 97/139/135 96/141/137 352/140/136
f 96/141/137 95/164/157 353/142/138
f 353/143/138 95/162/157 94/144/139
f 354/145/140 94/144/139 93/146/141
f 355/147/142 93/146/141 92/148/143
f 356/149/144 92/148/143 91/150/145
f 357/151/146 91/150/145 90/152/147
f 358/153/148 90/152/147 89/154/149
f 359/155/150 89/154/149 88/21/21
f 342/22/22 88/21/21 89/154/149
f 343/156/151 89/154/149 90/152/147
f 344/157/152 90/152/147 91/150/145
f 345/158/153 91/150/145 92/148/143
f 346/159/154 92/148/143 93/146/141
f 347/160/155 93/146/141 94/144/139
f 348/161/156 94/144/139 95/162/157
f 95/164/157 96/141/137 334/165/159
f 112/167/160 111/191/182 334/165/159
f 97/139/135 98/170/163 336/169/162
f 98/170/163 99/135/131 337/171/164
f 99/135/131 100/133/129 338/172/165
f 100/133/129 101/131/127 339/173/166
f 101/131/127 102/23/23 340/24/24
f 309/17/17 103/16/16 104/174/167
f 310/175/168 104/174/167 105/176/169
f 311/177/170 105/176/169 106/178/171
f 312/179/172 106/178/171 107/180/173
f 313/181/174 107/180/173 108/182/175
f 314/183/176 108/182/175 109/184/177
f 315/185/178 109/184/177 110/186/179
f 110/188/179 111/191/182 317/189/181
f 111/191/182 112/167/160 302/192/183
f 122/193/184 123/208/199 302/192/183
f 113/195/186 114/197/188 304/196/187
f 114/197/188 115/199/190 305/198/189
f 115/199/190 116/201/192 306/200/191
f 116/201/192 117/463/428 307/18/18
f 330/14/14 133/11/11 134/202/193
f 134/202/193 135/228/218 332/204/195
f 332/204/195 135/228/218 136/205/196
f 136/205/196 137/231/221 318/207/198
f 123/208/199 122/193/184 318/207/198
f 138/210/201 139/234/224 320/211/202
f 320/211/202 139/234/224 140/212/203
f 321/214/204 140/630/203 141/215/205
f 322/216/206 141/215/205 142/217/207
f 323/218/208 142/217/207 143/219/209
f 324/220/210 143/219/209 144/221/211
f 325/222/212 144/221/211 145/223/213
f 326/224/214 145/223/213 146/225/215
f 327/226/216 146/225/215 147/7/7
f 133/11/11 148/10/10 149/227/217
f 135/228/218 134/202/193 149/227/217
f 136/205/196 135/228/218 150/229/219
f 137/231/221 136/205/196 151/230/220
f 138/210/201 137/231/221 152/232/222
f 139/234/224 138/210/201 153/233/223
f 140/212/203 139/234/224 154/235/225
f 141/215/205 140/630/203 155/237/226
f 141/215/205 156/238/227 157/239/228
f 142/217/207 157/239/228 158/240/229
f 143/219/209 158/240/229 159/241/230
f 144/221/211 159/241/230 160/242/231
f 145/223/213 160/242/231 161/243/232
f 146/225/215 161/243/232 162/8/8
f 163/4/4 164/245/234 443/244/233
f 164/245/234 165/247/236 444/246/235
f 165/247/236 166/249/238 445/248/237
f 166/249/238 167/492/445 430/250/239
f 153/233/223 152/232/222 430/250/239
f 168/252/241 169/254/243 432/253/242
f 169/254/243 170/491/444 433/255/244
f 433/256/244 170/631/444 171/257/245
f 434/258/246 171/257/245 172/259/247
f 435/260/248 172/259/247 173/261/249
f 436/262/250 173/261/249 174/263/251
f 437/264/252 174/263/251 175/265/253
f 438/266/254 175/265/253 176/267/255
f 439/268/256 176/267/255 177/269/257
f 1/270/258 192/273/261 426/271/259
f 192/273/261 191/275/263 427/274/262
f 191/275/263 190/277/265 428/276/264
f 190/277/265 189/279/267 429/278/266
f 189/279/267 188/317/302 414/280/268
f 168/252/241 167/492/445 414/280/268
f 187/282/270 186/284/272 416/283/271
f 186/284/272 185/311/296 417/285/273
f 417/286/273 185/309/296 184/287/274
f 418/288/275 184/287/274 183/289/276
f 419/290/277 183/289/276 182/291/278
f 420/292/279 182/291/278 181/293/280
f 421/294/281 181/293/280 180/295/282
f 422/296/283 180/295/282 179/297/284
f 423/298/285 179/297/284 178/299/286
f 178/299/286 1/270/258 425/272/260
f 1/270/258 178/299/286 406/301/288
f 406/301/288 178/299/286 179/297/284
f 407/303/290 179/297/284 180/295/282
f 408/304/291 180/295/282 181/293/280
f 409/305/292 181/293/280 182/291/278
f 410/306/293 182/291/278 183/289/276
f 411/307/294 183/289/276 184/287/274
f 412/308/295 184/287/274 185/309/296
f 185/311/296 186/284/272 398/312/298
f 203/314/299 202/490/316 398/312/298
f 187/282/270 188/317/302 400/316/301
f 188/317/302 189/279/267 401/318/303
f 189/279/267 190/277/265 402/319/304
f 190/277/265 191/275/263 403/320/305
f 191/275/263 192/273/261 404/321/306
f 192/273/261 1/270/258 405/302/289
f 209/322/307 206/325/310 207/323/308
f 206/325/310 209/322/307 211/326/311
f 205/327/312 211/326/311 212/328/313
f 204/329/314 212/328/313 213/330/315
f 213/330/315 214/333/317 202/332/316
f 214/333/317 215/336/320 201/334/318
f 200/335/319 201/334/318 215/336/320
f 217/338/322 199/340/324 200/335/319
f 218/339/323 198/342/326 199/340/324
f 219/341/325 197/344/328 198/342/326
f 219/341/325 220/346/330 196/343/327
f 195/345/329 196/343/327 220/346/330
f 194/348/332 195/632/329 221/349/331
f 193/351/334 194/348/332 222/350/333
f 224/353/336 208/633/443 193/351/334
f 207/323/308 208/633/443 224/353/336
f 209/322/307 210/324/309 226/354/337
f 210/324/309 224/353/336 227/356/339
f 224/353/336 223/352/335 228/357/340
f 229/358/341 228/357/340 223/352/335
f 222/350/333 221/349/331 230/359/342
f 221/347/331 220/346/330 231/360/343
f 220/346/330 219/341/325 232/362/344
f 219/341/325 218/339/323 233/363/345
f 218/339/323 217/338/322 234/364/346
f 234/364/346 217/338/322 216/337/321
f 216/337/321 215/336/320 236/366/348
f 237/367/349 236/366/348 215/336/320
f 225/355/338 240/369/351 211/326/311
f 239/368/350 212/328/313 211/326/311
f 212/328/313 239/368/350 238/370/352
f 213/330/315 238/370/352 237/367/349
f 242/371/353 241/374/356 237/367/349
f 244/372/354 235/365/347 236/366/348
f 236/366/348 237/367/349 241/374/356
f 246/375/357 233/363/345 234/364/346
f 235/365/347 244/372/354 245/376/358
f 232/362/344 247/378/360 248/377/359
f 247/378/360 232/362/344 233/363/345
f 230/361/342 231/360/343 248/377/359
f 249/380/362 229/358/341 230/359/342
f 249/380/362 251/382/363 228/357/340
f 227/356/339 228/357/340 251/382/363
f 227/356/339 252/383/364 253/384/365
f 254/385/366 225/355/338 226/354/337
f 225/355/338 254/385/366 255/386/367
f 238/370/352 239/368/350 256/387/368
f 256/387/368 239/368/350 240/369/351
f 258/388/369 256/387/368 255/386/367
f 257/390/371 242/371/353 256/387/368
f 255/386/367 254/385/366 260/391/372
f 254/385/366 253/384/365 261/392/373
f 261/392/373 253/384/365 252/383/364
f 264/394/375 263/395/376 251/382/363
f 252/383/364 251/382/363 263/395/376
f 250/379/361 248/377/359 266/396/377
f 249/380/362 250/381/361 265/398/378
f 267/399/379 266/396/377 248/377/359
f 268/400/380 267/399/379 247/378/360
f 246/375/357 245/376/358 269/401/381
f 270/402/382 244/372/354 243/373/355
f 269/401/381 245/376/358 244/372/354
f 241/374/356 272/404/384 271/403/383
f 241/374/356 242/371/353 257/390/371
f 274/405/385 25/82/80 24/79/77
f 27/87/85 26/85/83 275/407/387
f 25/82/80 274/405/385 275/407/387
f 277/409/389 12/88/86 27/87/85
f 14/46/46 13/43/43 278/410/390
f 12/88/86 277/409/389 278/410/390
f 279/411/391 280/415/395 15/49/49
f 283/412/392 18/58/58 17/55/55
f 17/55/55 16/52/52 281/414/394
f 281/414/394 16/52/52 15/49/49
f 19/61/61 284/417/397 285/416/396
f 19/61/61 18/58/58 283/412/392
f 22/73/71 21/69/67 286/418/398
f 21/69/67 20/628/64 285/420/396
f 23/76/74 22/73/71 287/419/399
f 24/79/77 23/76/74 288/421/400
f 281/422/394 290/431/406 289/423/401
f 273/425/386 292/429/404 291/426/402
f 293/428/403 291/426/402 292/429/404
f 290/431/406 293/428/403 294/430/405
f 295/432/407 278/634/390 277/433/389
f 295/432/407 296/434/408 293/428/403
f 296/434/408 277/433/389 276/435/388
f 297/436/409 291/426/402 293/428/403
f 275/437/387 274/427/385 291/426/402
f 279/438/391 278/634/390 295/432/407
f 281/422/394 280/440/395 298/439/410
f 299/441/411 283/442/392 282/424/393
f 289/423/401 294/430/405 300/444/412
f 300/444/412 285/635/396 284/443/397
f 286/445/398 285/635/396 300/444/412
f 294/430/405 292/429/404 301/446/413
f 301/446/413 292/429/404 288/448/400
f 112/167/160 113/195/186 303/194/185
f 121/449/414 122/193/184 303/194/185
f 120/450/415 121/449/414 304/196/187
f 119/451/416 120/450/415 305/198/189
f 118/452/417 119/451/416 306/200/191
f 5/453/418 118/452/417 307/18/18
f 309/17/17 132/454/419 5/453/418
f 310/175/168 131/455/420 132/454/419
f 311/177/170 130/456/421 131/455/420
f 312/179/172 129/457/422 130/456/421
f 313/181/174 128/458/423 129/457/422
f 314/183/176 127/459/424 128/458/423
f 315/185/178 126/460/425 127/459/424
f 316/187/180 125/462/427 126/460/425
f 124/461/426 125/636/427 316/190/180
f 123/208/199 124/461/426 317/189/181
f 137/231/221 138/210/201 319/209/200
f 124/461/426 123/208/199 319/209/200
f 321/213/204 125/636/427 124/461/426
f 322/216/206 126/460/425 125/462/427
f 323/218/208 127/459/424 126/460/425
f 324/220/210 128/458/423 127/459/424
f 325/222/212 129/457/422 128/458/423
f 326/224/214 130/456/421 129/457/422
f 327/226/216 131/455/420 130/456/421
f 328/12/12 132/454/419 131/455/420
f 329/13/13 5/453/418 132/454/419
f 118/452/417 5/453/418 329/13/13
f 119/451/416 118/452/417 330/14/14
f 120/450/415 119/451/416 331/203/194
f 121/449/414 120/450/415 332/204/195
f 122/193/184 121/449/414 333/206/197
f 96/141/137 97/139/135 335/168/161
f 113/195/186 112/167/160 335/168/161
f 114/197/188 113/195/186 336/169/162
f 115/199/190 114/197/188 337/171/164
f 116/201/192 115/199/190 338/172/165
f 117/463/428 116/201/192 339/173/166
f 341/20/20 6/19/19 117/463/428
f 342/22/22 103/16/16 6/19/19
f 343/156/151 104/174/167 103/16/16
f 344/157/152 105/176/169 104/174/167
f 345/158/153 106/178/171 105/176/169
f 346/159/154 107/180/173 106/178/171
f 347/160/155 108/182/175 107/180/173
f 348/161/156 109/184/177 108/182/175
f 349/163/158 110/186/179 109/184/177
f 111/191/182 110/188/179 349/166/158
f 98/170/163 97/139/135 351/138/134
f 79/122/119 78/137/133 351/138/134
f 80/464/429 79/122/119 352/140/136
f 354/145/140 81/466/430 80/465/429
f 355/147/142 82/467/431 81/466/430
f 356/149/144 83/468/432 82/467/431
f 357/151/146 84/469/433 83/468/432
f 358/153/148 85/470/434 84/469/433
f 359/155/150 86/471/435 85/470/434
f 360/26/26 87/478/442 86/471/435
f 8/472/436 87/478/442 360/26/26
f 73/473/437 8/472/436 361/25/25
f 74/474/438 73/473/437 362/28/28
f 75/475/439 74/474/438 363/130/126
f 76/476/440 75/475/439 364/132/128
f 77/477/441 76/476/440 365/134/130
f 366/123/118 65/101/99 66/100/98
f 78/137/133 79/122/119 367/124/120
f 77/477/441 78/137/133 368/125/121
f 76/476/440 77/477/441 369/126/122
f 75/475/439 76/476/440 370/127/123
f 74/474/438 75/475/439 371/128/124
f 73/473/437 74/474/438 372/129/125
f 8/472/436 73/473/437 373/33/33
f 375/31/31 87/478/442 8/472/436
f 376/115/112 86/471/435 87/478/442
f 377/116/113 85/470/434 86/471/435
f 378/117/114 84/469/433 85/470/434
f 379/118/115 83/468/432 84/469/433
f 380/119/116 82/467/431 83/468/432
f 381/120/117 81/466/430 82/467/431
f 366/121/118 80/465/429 81/466/430
f 382/67/63 35/68/62 36/70/68
f 384/72/70 48/97/95 49/99/97
f 385/75/73 47/95/93 48/97/95
f 386/78/76 46/93/91 47/95/93
f 387/81/79 45/91/89 46/93/91
f 44/89/87 45/91/89 387/81/79
f 43/36/36 44/89/87 388/84/82
f 10/37/37 43/36/36 389/41/41
f 391/40/40 57/35/35 10/37/37
f 392/44/44 56/114/111 57/35/35
f 393/47/47 55/112/109 56/114/111
f 394/51/51 54/110/107 55/112/109
f 395/53/53 53/108/105 54/110/107
f 396/56/56 52/106/103 53/108/105
f 397/60/60 51/102/100 52/106/103
f 382/63/63 50/629/66 51/102/100
f 186/284/272 187/282/270 399/315/300
f 400/316/301 204/479/314 203/314/299
f 401/318/303 205/480/312 204/479/314
f 402/319/304 206/481/310 205/480/312
f 403/320/305 207/637/308 206/481/310
f 208/482/443 207/637/308 403/320/305
f 405/302/289 193/638/334 208/482/443
f 194/483/332 193/638/334 405/302/289
f 195/484/329 194/483/332 406/301/288
f 196/485/327 195/484/329 407/303/290
f 197/486/328 196/485/327 408/304/291
f 410/306/293 198/487/326 197/486/328
f 411/307/294 199/488/324 198/487/326
f 412/308/295 200/489/319 199/488/324
f 413/310/297 201/639/318 200/489/319
f 202/490/316 201/640/318 413/313/297
f 188/317/302 187/282/270 415/281/269
f 169/254/243 168/252/241 415/281/269
f 170/491/444 169/254/243 416/283/271
f 171/257/245 170/631/444 417/286/273
f 172/259/247 171/257/245 418/288/275
f 420/292/279 173/261/249 172/259/247
f 421/294/281 174/263/251 173/261/249
f 422/296/283 175/265/253 174/263/251
f 423/298/285 176/267/255 175/265/253
f 424/300/287 177/269/257 176/267/255
f 2/2/2 177/269/257 424/300/287
f 163/4/4 2/2/2 425/272/260
f 164/245/234 163/4/4 426/271/259
f 165/247/236 164/245/234 427/274/262
f 166/249/238 165/247/236 428/276/264
f 167/492/445 166/249/238 429/278/266
f 167/492/445 168/252/241 431/251/240
f 154/235/225 153/233/223 431/251/240
f 155/236/226 154/235/225 432/253/242
f 156/238/227 155/237/226 433/256/244
f 435/260/248 157/239/228 156/238/227
f 436/262/250 158/240/229 157/239/228
f 437/264/252 159/241/230 158/240/229
f 438/266/254 160/242/231 159/241/230
f 439/268/256 161/243/232 160/242/231
f 440/1/1 162/8/8 161/243/232
f 441/3/3 3/6/6 162/8/8
f 442/5/5 148/10/10 3/6/6
f 443/244/233 149/227/217 148/10/10
f 150/229/219 149/227/217 443/244/233
f 151/230/220 150/229/219 444/246/235
f 152/232/222 151/230/220 445/248/237
f 446/493/446 449/501/454 494/494/447
f 495/496/449 453/509/462 450/497/450
f 495/496/449 452/594/543 455/498/451
f 527/500/453 452/594/543 449/501/454
f 510/503/456 511/511/464 557/504/457
f 447/506/459 450/497/450 510/503/456
f 541/508/461 260/391/372 261/392/373
f 453/509/462 456/515/468 512/510/463
f 527/500/453 262/393/374 263/395/376
f 496/499/452 455/498/451 458/513/466
f 456/515/468 459/534/486 513/516/469
f 528/512/465 263/395/376 264/394/375
f 497/514/467 458/513/466 461/518/471
f 498/520/472 461/595/471 464/521/473
f 464/521/473 467/524/476 500/523/475
f 467/524/476 470/548/498 501/525/477
f 462/526/478 465/576/526 515/527/479
f 515/527/479 465/576/526 468/529/481
f 530/531/483 265/397/378 266/396/377
f 531/532/484 266/396/377 267/399/379
f 459/534/486 462/641/478 514/535/480
f 529/517/470 264/394/375 265/398/378
f 468/529/481 471/544/494 517/537/487
f 267/399/379 268/400/380 533/538/488
f 479/539/489 480/545/495 519/540/490
f 269/401/381 270/402/382 535/542/492
f 471/544/494 479/539/489 518/541/491
f 268/400/380 269/401/381 534/543/493
f 480/545/495 481/564/514 520/546/496
f 270/402/382 271/403/383 536/547/497
f 470/548/498 473/550/500 502/549/499
f 473/550/500 475/552/502 503/551/501
f 475/552/502 477/596/544 504/553/503
f 504/553/503 477/596/544 482/554/504
f 505/555/505 482/554/504 485/556/506
f 485/556/506 488/597/545 507/558/508
f 483/559/509 486/577/527 522/560/510
f 537/562/512 272/404/384 257/390/371
f 481/564/514 483/559/509 521/561/511
f 536/547/497 271/403/383 272/404/384
f 522/560/510 486/577/527 489/565/515
f 257/390/371 258/388/369 539/567/517
f 507/558/508 488/597/545 491/568/518
f 508/569/519 491/568/518 446/493/446
f 258/388/369 259/389/370 540/570/520
f 540/570/520 259/389/370 260/391/372
f 523/566/516 489/565/515 492/571/521
f 524/572/522 492/571/521 447/506/459
f 542/573/523 451/642/564 454/574/524
f 449/501/454 452/594/543 495/496/449
f 456/515/468 453/509/462 495/496/449
f 497/514/467 459/534/486 456/515/468
f 498/519/472 462/641/478 459/534/486
f 499/522/474 465/576/526 462/526/478
f 500/523/475 468/529/481 465/576/526
f 471/544/494 468/529/481 500/523/475
f 479/539/489 471/544/494 501/525/477
f 480/545/495 479/539/489 502/549/499
f 481/564/514 480/545/495 503/551/501
f 505/555/505 483/559/509 481/564/514
f 486/577/527 483/559/509 505/555/505
f 489/565/515 486/577/527 506/557/507
f 508/569/519 492/571/521 489/565/515
f 509/495/448 447/506/459 492/571/521
f 450/497/450 447/506/459 509/495/448
f 450/497/450 453/509/462 511/511/464
f 511/511/464 512/510/463 558/578/528
f 558/578/528 512/510/463 513/516/469
f 559/579/529 513/516/469 514/535/480
f 514/528/480 515/527/479 561/581/531
f 561/581/531 515/527/479 516/530/482
f 516/530/482 517/537/487 563/584/533
f 517/537/487 518/541/491 564/585/534
f 518/541/491 519/540/490 565/586/535
f 565/586/535 519/540/490 520/546/496
f 551/588/537 484/643/555 478/589/538
f 521/561/511 522/560/510 552/590/539
f 552/590/539 522/560/510 523/566/516
f 553/591/540 523/566/516 524/572/522
f 554/592/541 524/572/522 525/507/460
f 525/507/460 510/503/456 556/505/458
f 526/502/455 261/392/373 262/393/374
f 528/512/465 455/498/451 452/594/543
f 529/517/470 458/513/466 455/498/451
f 530/536/483 461/518/471 458/513/466
f 531/532/484 464/521/473 461/595/471
f 532/533/485 467/524/476 464/521/473
f 470/548/498 467/524/476 532/533/485
f 473/550/500 470/548/498 533/538/488
f 475/552/502 473/550/500 534/543/493
f 477/596/544 475/552/502 535/542/492
f 537/562/512 482/554/504 477/596/544
f 538/563/513 485/556/506 482/554/504
f 488/597/545 485/556/506 538/563/513
f 491/568/518 488/597/545 539/567/517
f 446/493/446 491/568/518 540/570/520
f 449/501/454 446/493/446 541/508/461
f 547/598/546 542/573/523 545/575/525
f 549/600/548 544/603/551 543/601/549
f 448/606/554 451/642/564 542/573/523
f 548/602/550 543/601/549 542/573/523
f 484/607/555 487/604/552 544/603/551
f 493/608/556 448/606/554 543/601/549
f 546/599/547 545/575/525 463/610/558
f 469/613/561 472/644/565 547/598/546
f 547/598/546 472/644/565 474/614/562
f 548/602/550 474/614/562 476/615/563
f 520/546/496 521/561/511 551/588/537
f 487/617/552 484/643/555 551/588/537
f 553/591/540 490/645/553 487/617/552
f 493/618/556 490/645/553 553/591/540
f 448/619/554 493/618/556 554/592/541
f 451/620/564 448/619/554 555/593/542
f 557/504/457 454/621/524 451/620/564
f 558/578/528 457/622/557 454/621/524
f 559/579/529 460/646/560 457/622/557
f 463/623/558 460/646/560 559/579/529
f 466/624/559 463/647/558 560/582/530
f 562/583/532 469/648/561 466/624/559
f 472/625/565 469/648/561 562/583/532
f 474/626/562 472/625/565 563/584/533
f 476/627/563 474/626/562 564/585/534
f 550/587/536 478/589/538 476/627/563
